<svg xmlns="http://www.w3.org/2000/svg" width="1200" height="630" viewBox="0 0 1200 630" role="img" aria-labelledby="title desc">
  <title id="title">Self-aware GitHub ecosystem for david</title>
  <desc id="desc">david is in a focused cycle: 3 public project signals, 1 recent pushes, 1 open issue markers, and 4 healthy workflow pulses.</desc>
  <style>
    :root {
      color-scheme: dark;
    }
    .bg { fill: url(#sky); }
    .star { fill: #f8fafc; opacity: .55; animation: twinkle 4s ease-in-out infinite; }
    .horizon { fill: url(#ground); }
    .grid { stroke: #06b6d4; stroke-width: 1; opacity: .18; }
    .title { font: 700 42px ui-monospace, SFMono-Regular, Menlo, Consolas, monospace; fill: #f8fafc; letter-spacing: 0; }
    .subtitle { font: 500 18px ui-monospace, SFMono-Regular, Menlo, Consolas, monospace; fill: #cbd5e1; }
    .metric { font: 700 24px ui-monospace, SFMono-Regular, Menlo, Consolas, monospace; fill: #f8fafc; }
    .metric-label { font: 600 12px ui-monospace, SFMono-Regular, Menlo, Consolas, monospace; fill: #a5b4fc; text-transform: uppercase; }
    .term { font: 600 18px ui-monospace, SFMono-Regular, Menlo, Consolas, monospace; fill: #d1fae5; opacity: .92; animation: pulseText 12s ease-in-out infinite; }
    .line-1 { animation-delay: .8s; }
    .line-2 { animation-delay: 1.6s; }
    .line-3 { animation-delay: 2.4s; }
    .terminal { fill: rgba(2, 6, 23, .68); stroke: #06b6d4; stroke-width: 1.5; }
    .creature { transform-origin: 600px 378px; animation: breathe 3.4s ease-in-out infinite; }
    .eye { fill: #020617; animation: blink 5s infinite; transform-origin: center; }
    .repo { animation: floatRepo 5s ease-in-out infinite; }
    .repo-label { font: 600 12px ui-monospace, SFMono-Regular, Menlo, Consolas, monospace; fill: #e2e8f0; opacity: .8; }
    .rain { stroke: #93c5fd; stroke-width: 2; opacity: .0; animation: rainFall 1.2s linear infinite; }
    .petal { fill: #06b6d4; opacity: .42; animation: bloom 4.8s ease-in-out infinite; }
    .glitchy { animation: glitch 1.7s steps(2) infinite; }
    @keyframes twinkle { 0%, 100% { opacity: .25; } 50% { opacity: .9; } }
    @keyframes breathe { 0%, 100% { transform: scale(1); } 50% { transform: scale(1.025); } }
    @keyframes blink { 0%, 94%, 100% { transform: scaleY(1); } 96% { transform: scaleY(.08); } }
    @keyframes floatRepo { 0%, 100% { transform: translateY(0); } 50% { transform: translateY(-10px); } }
    @keyframes rainFall { 0% { transform: translateY(-100px); opacity: .0; } 12% { opacity: .55; } 100% { transform: translateY(700px); opacity: 0; } }
    @keyframes bloom { 0%, 100% { transform: translateY(0) scale(.9); } 50% { transform: translateY(-18px) scale(1.25); } }
    @keyframes pulseText { 0%, 100% { opacity: .72; } 50% { opacity: 1; } }
    @keyframes glitch { 0%, 100% { transform: translate(0, 0); filter: none; } 20% { transform: translate(3px, -1px); filter: hue-rotate(25deg); } 40% { transform: translate(-2px, 2px); } }
    @media (prefers-reduced-motion: reduce) {
      * { animation: none !important; }
    }
  </style>
  <defs>
    <linearGradient id="sky" x1="0" x2="1" y1="0" y2="1">
      <stop offset="0" stop-color="#18181b"/>
      <stop offset=".55" stop-color="#4f46e5"/>
      <stop offset="1" stop-color="#020617"/>
    </linearGradient>
    <linearGradient id="ground" x1="0" x2="0" y1="0" y2="1">
      <stop offset="0" stop-color="#06b6d4" stop-opacity=".42"/>
      <stop offset="1" stop-color="#020617"/>
    </linearGradient>
    <filter id="glow">
      <feGaussianBlur stdDeviation="4" result="blur"/>
      <feMerge>
        <feMergeNode in="blur"/>
        <feMergeNode in="SourceGraphic"/>
      </feMerge>
    </filter>
  </defs>
  <rect class="bg" width="1200" height="630"/>
  <g class="">
    <circle class="star" cx="161" cy="207" r="2" />
<circle class="star" cx="198" cy="415" r="2" />
<circle class="star" cx="91" cy="243" r="1.5" />
<circle class="star" cx="917" cy="283" r="2" />
<circle class="star" cx="437" cy="256" r="2" />
<circle class="star" cx="405" cy="380" r="2" />
<circle class="star" cx="1043" cy="260" r="2" />
<circle class="star" cx="227" cy="226" r="1.5" />
<circle class="star" cx="316" cy="61" r="1.5" />
<circle class="star" cx="1159" cy="135" r="1" />
<circle class="star" cx="348" cy="68" r="1" />
<circle class="star" cx="475" cy="297" r="1.5" />
<circle class="star" cx="241" cy="258" r="1" />
<circle class="star" cx="1000" cy="226" r="1" />
<circle class="star" cx="383" cy="358" r="1.5" />
<circle class="star" cx="422" cy="72" r="1.5" />
<circle class="star" cx="512" cy="367" r="1.5" />
<circle class="star" cx="1105" cy="366" r="2" />
<circle class="star" cx="71" cy="403" r="1" />
<circle class="star" cx="636" cy="271" r="2" />
<circle class="star" cx="548" cy="94" r="1.5" />
<circle class="star" cx="1060" cy="199" r="1.5" />
<circle class="star" cx="727" cy="48" r="1" />
<circle class="star" cx="318" cy="347" r="1.5" />
<circle class="star" cx="684" cy="81" r="2" />
<circle class="star" cx="837" cy="163" r="1" />
<circle class="star" cx="998" cy="247" r="2" />
<circle class="star" cx="478" cy="381" r="1.5" />
<circle class="star" cx="1125" cy="77" r="1" />
<circle class="star" cx="385" cy="281" r="1" />
<circle class="star" cx="30" cy="193" r="2" />
<circle class="star" cx="915" cy="120" r="1" />
<circle class="star" cx="816" cy="98" r="1" />
<circle class="star" cx="106" cy="216" r="2" />
<circle class="star" cx="555" cy="306" r="1.5" />
<circle class="star" cx="797" cy="417" r="2" />
<circle class="star" cx="982" cy="117" r="2" />
<circle class="star" cx="977" cy="42" r="1" />
<circle class="star" cx="237" cy="275" r="1" />
<circle class="star" cx="838" cy="212" r="1.5" />
<circle class="star" cx="730" cy="420" r="2" />
<circle class="star" cx="289" cy="31" r="1" />
<circle class="star" cx="790" cy="390" r="1.5" />
<circle class="star" cx="564" cy="99" r="1" />
<circle class="star" cx="501" cy="99" r="2" />
<circle class="star" cx="1016" cy="318" r="1.5" />
<circle class="star" cx="1155" cy="26" r="2" />
<circle class="star" cx="175" cy="263" r="2" />
<circle class="star" cx="1118" cy="305" r="2" />
<circle class="star" cx="350" cy="332" r="2" />
<circle class="star" cx="775" cy="290" r="1.5" />
<circle class="star" cx="419" cy="298" r="1.5" />
<circle class="star" cx="338" cy="82" r="1.5" />
<circle class="star" cx="567" cy="274" r="2" />
<circle class="star" cx="1030" cy="50" r="1" />
<circle class="star" cx="38" cy="86" r="1.5" />
<circle class="star" cx="948" cy="317" r="2" />
<circle class="star" cx="1104" cy="281" r="1" />
<circle class="star" cx="1009" cy="116" r="2" />
<circle class="star" cx="585" cy="115" r="1.5" />
<circle class="star" cx="810" cy="401" r="1" />
<circle class="star" cx="83" cy="135" r="1" />
<circle class="star" cx="641" cy="208" r="2" />
<circle class="star" cx="1158" cy="346" r="1" />
<circle class="star" cx="515" cy="377" r="1.5" />
<circle class="star" cx="262" cy="203" r="1.5" />
<circle class="star" cx="85" cy="245" r="1" />
<circle class="star" cx="34" cy="274" r="1" />
<circle class="star" cx="1002" cy="347" r="2" />
<circle class="star" cx="460" cy="238" r="1.5" />
    <circle class="petal" cx="80" cy="460" r="4" />
<circle class="petal" cx="126" cy="474" r="5" />
<circle class="petal" cx="172" cy="488" r="6" />
<circle class="petal" cx="218" cy="502" r="4" />
<circle class="petal" cx="264" cy="460" r="5" />
<circle class="petal" cx="310" cy="474" r="6" />
<circle class="petal" cx="356" cy="488" r="4" />
<circle class="petal" cx="402" cy="502" r="5" />
<circle class="petal" cx="448" cy="460" r="6" />
<circle class="petal" cx="494" cy="474" r="4" />
<circle class="petal" cx="540" cy="488" r="5" />
<circle class="petal" cx="586" cy="502" r="6" />
<circle class="petal" cx="632" cy="460" r="4" />
<circle class="petal" cx="678" cy="474" r="5" />
<circle class="petal" cx="724" cy="488" r="6" />
<circle class="petal" cx="770" cy="502" r="4" />
<circle class="petal" cx="816" cy="460" r="5" />
<circle class="petal" cx="862" cy="474" r="6" />
<circle class="petal" cx="908" cy="488" r="4" />
<circle class="petal" cx="954" cy="502" r="5" />
<circle class="petal" cx="1000" cy="460" r="6" />
<circle class="petal" cx="1046" cy="474" r="4" />
<circle class="petal" cx="1092" cy="488" r="5" />
    <path class="horizon" d="M0 472 C180 430 270 510 420 468 C575 424 690 488 828 452 C975 412 1065 455 1200 426 L1200 630 L0 630 Z"/>
    <g opacity=".8">
      <line class="grid" x1="0" y1="500" x2="600" y2="630"/><line class="grid" x1="80" y1="500" x2="600" y2="630"/><line class="grid" x1="160" y1="500" x2="600" y2="630"/><line class="grid" x1="240" y1="500" x2="600" y2="630"/><line class="grid" x1="320" y1="500" x2="600" y2="630"/><line class="grid" x1="400" y1="500" x2="600" y2="630"/><line class="grid" x1="480" y1="500" x2="600" y2="630"/><line class="grid" x1="560" y1="500" x2="600" y2="630"/><line class="grid" x1="640" y1="500" x2="600" y2="630"/><line class="grid" x1="720" y1="500" x2="600" y2="630"/><line class="grid" x1="800" y1="500" x2="600" y2="630"/><line class="grid" x1="880" y1="500" x2="600" y2="630"/><line class="grid" x1="960" y1="500" x2="600" y2="630"/><line class="grid" x1="1040" y1="500" x2="600" y2="630"/><line class="grid" x1="1120" y1="500" x2="600" y2="630"/><line class="grid" x1="1200" y1="500" x2="600" y2="630"/>
      <line class="grid" x1="0" y1="500" x2="1200" y2="500"/><line class="grid" x1="0" y1="526" x2="1200" y2="526"/><line class="grid" x1="0" y1="552" x2="1200" y2="552"/><line class="grid" x1="0" y1="578" x2="1200" y2="578"/><line class="grid" x1="0" y1="604" x2="1200" y2="604"/><line class="grid" x1="0" y1="630" x2="1200" y2="630"/>
    </g>
    <text x="48" y="62" class="title">Self-aware AI ecosystem</text>
    <text x="50" y="92" class="subtitle">Generated 2026-07-08 17:06 UTC from public GitHub signals</text>

    <rect x="42" y="122" width="418" height="172" rx="8" class="terminal"/>
    <text x="64" y="158" class="term line-0">$ ecosystem scan --owner david</text>
<text x="64" y="188" class="term line-1">mood=focused weather=soft static</text>
<text x="64" y="218" class="term line-2">health=80 activity=24 pressure=12</text>
<text x="64" y="248" class="term line-3">languages=Python, TypeScript, CSS</text>

    <g transform="translate(48 330)">
      <text class="metric-label" x="0" y="0">Health</text>
      <text class="metric" x="0" y="34">80</text>
      <text class="metric-label" x="130" y="0">Activity</text>
      <text class="metric" x="130" y="34">24</text>
      <text class="metric-label" x="286" y="0">Pressure</text>
      <text class="metric" x="286" y="34">12</text>
    </g>

    <g class="creature" filter="url(#glow)">
      <ellipse cx="600" cy="388" rx="118" ry="78" fill="#a78bfa" opacity=".92"/>
      <ellipse cx="558" cy="360" rx="20" ry="24" class="eye"/>
      <ellipse cx="646" cy="360" rx="20" ry="24" class="eye"/>
      <path d="M510 380 h60" stroke="#020617" stroke-width="7" stroke-linecap="round" fill="none"/>
      <path d="M632 380 h60" stroke="#020617" stroke-width="7" stroke-linecap="round" fill="none"/>
      <path d="M515 310 q-48 -56 -88 -8" stroke="#f8fafc" stroke-width="8" stroke-linecap="round" fill="none"/>
      <path d="M685 310 q48 -56 88 -8" stroke="#f8fafc" stroke-width="8" stroke-linecap="round" fill="none"/>
    </g>

    <g>
      <g class="repo repo-0" style="animation-delay:-0.0s"><circle cx="898.0" cy="300.0" r="21" fill="#4f46e5" opacity="0.82"/><text x="927.0" y="304.0" text-anchor="start" class="repo-label">ai-profile-ecosystem</text></g>
<g class="repo repo-1" style="animation-delay:-0.7s"><circle cx="665.0" cy="365.3" r="16" fill="#06b6d4" opacity="0.82"/><text x="689.0" y="369.3" text-anchor="start" class="repo-label">github-identity-lab</text></g>
<g class="repo repo-2" style="animation-delay:-1.4s"><circle cx="684.0" cy="253.8" r="13" fill="#4f46e5" opacity="0.82"/><text x="705.0" y="257.8" text-anchor="start" class="repo-label">visual-systems</text></g>
    </g>

    <text x="50" y="552" class="subtitle"><tspan x="50" dy="0">david is in a focused cycle: 3 public project signals, 1 recent</tspan>
<tspan x="50" dy="26">pushes, 1 open issue markers, and 4 healthy workflow pulses.</tspan></text>
    <text x="50" y="612" class="subtitle">Repos 3 | Recent events 2 | Weather soft static</text>
  </g>
</svg>
