<svg xmlns="http://www.w3.org/2000/svg" width="1200" height="630" viewBox="0 0 1200 630" role="img" aria-labelledby="title desc">
  <title id="title">Profile OS for David Vuy</title>
  <desc id="desc">davidvuy is in a stormy cycle: 3 public project signals, 59 recent pushes, 0 open issue markers, and 1 healthy workflow pulses.</desc>
  <style>
    :root {
      color-scheme: dark;
    }
    .bg { fill: url(#sky); }
    .star { fill: #fef3c7; opacity: .55; animation: twinkle 4s ease-in-out infinite; }
    .horizon { fill: url(#ground); }
    .grid { stroke: #f97316; stroke-width: 1; opacity: .18; }
    .title { font: 700 42px ui-monospace, SFMono-Regular, Menlo, Consolas, monospace; fill: #f8fafc; letter-spacing: 0; }
    .subtitle { font: 500 18px ui-monospace, SFMono-Regular, Menlo, Consolas, monospace; fill: #cbd5e1; }
    .metric { font: 700 24px ui-monospace, SFMono-Regular, Menlo, Consolas, monospace; fill: #f8fafc; }
    .metric-label { font: 600 12px ui-monospace, SFMono-Regular, Menlo, Consolas, monospace; fill: #a5b4fc; text-transform: uppercase; }
    .term { font: 600 18px ui-monospace, SFMono-Regular, Menlo, Consolas, monospace; fill: #d1fae5; opacity: .92; animation: pulseText 12s ease-in-out infinite; }
    .line-1 { animation-delay: .8s; }
    .line-2 { animation-delay: 1.6s; }
    .line-3 { animation-delay: 2.4s; }
    .terminal { fill: rgba(2, 6, 23, .68); stroke: #f97316; stroke-width: 1.5; }
    .creature { transform-origin: 600px 378px; animation: breathe 3.4s ease-in-out infinite; }
    .eye { fill: #020617; animation: blink 5s infinite; transform-origin: center; }
    .repo { animation: floatRepo 5s ease-in-out infinite; }
    .repo-label { font: 600 12px ui-monospace, SFMono-Regular, Menlo, Consolas, monospace; fill: #e2e8f0; opacity: .8; }
    .rain { stroke: #93c5fd; stroke-width: 2; opacity: .0; animation: rainFall 1.2s linear infinite; }
    .petal { fill: #f97316; opacity: .42; animation: bloom 4.8s ease-in-out infinite; }
    .glitchy { animation: glitch 1.7s steps(2) infinite; }
    @keyframes twinkle { 0%, 100% { opacity: .25; } 50% { opacity: .9; } }
    @keyframes breathe { 0%, 100% { transform: scale(1); } 50% { transform: scale(1.025); } }
    @keyframes blink { 0%, 94%, 100% { transform: scaleY(1); } 96% { transform: scaleY(.08); } }
    @keyframes floatRepo { 0%, 100% { transform: translateY(0); } 50% { transform: translateY(-10px); } }
    @keyframes rainFall { 0% { transform: translateY(-100px); opacity: .0; } 12% { opacity: .55; } 100% { transform: translateY(700px); opacity: 0; } }
    @keyframes bloom { 0%, 100% { transform: translateY(0) scale(.9); } 50% { transform: translateY(-18px) scale(1.25); } }
    @keyframes pulseText { 0%, 100% { opacity: .72; } 50% { opacity: 1; } }
    @keyframes glitch { 0%, 100% { transform: translate(0, 0); filter: none; } 20% { transform: translate(3px, -1px); filter: hue-rotate(25deg); } 40% { transform: translate(-2px, 2px); } }
    @media (prefers-reduced-motion: reduce) {
      * { animation: none !important; }
    }
  </style>
  <defs>
    <linearGradient id="sky" x1="0" x2="1" y1="0" y2="1">
      <stop offset="0" stop-color="#111827"/>
      <stop offset=".55" stop-color="#7f1d1d"/>
      <stop offset="1" stop-color="#020617"/>
    </linearGradient>
    <linearGradient id="ground" x1="0" x2="0" y1="0" y2="1">
      <stop offset="0" stop-color="#f97316" stop-opacity=".42"/>
      <stop offset="1" stop-color="#020617"/>
    </linearGradient>
    <filter id="glow">
      <feGaussianBlur stdDeviation="4" result="blur"/>
      <feMerge>
        <feMergeNode in="blur"/>
        <feMergeNode in="SourceGraphic"/>
      </feMerge>
    </filter>
  </defs>
  <rect class="bg" width="1200" height="630"/>
  <g class="glitchy">
    <circle class="star" cx="1084" cy="27" r="2" />
<circle class="star" cx="85" cy="327" r="1" />
<circle class="star" cx="530" cy="251" r="2" />
<circle class="star" cx="927" cy="220" r="1.5" />
<circle class="star" cx="462" cy="112" r="1" />
<circle class="star" cx="1126" cy="38" r="1" />
<circle class="star" cx="735" cy="132" r="2" />
<circle class="star" cx="793" cy="329" r="1" />
<circle class="star" cx="373" cy="249" r="1" />
<circle class="star" cx="392" cy="299" r="2" />
<circle class="star" cx="571" cy="374" r="1" />
<circle class="star" cx="293" cy="48" r="1.5" />
<circle class="star" cx="286" cy="408" r="1" />
<circle class="star" cx="787" cy="180" r="1" />
<circle class="star" cx="764" cy="44" r="1" />
<circle class="star" cx="56" cy="30" r="1.5" />
<circle class="star" cx="74" cy="360" r="2" />
<circle class="star" cx="810" cy="284" r="1.5" />
<circle class="star" cx="431" cy="217" r="2" />
<circle class="star" cx="675" cy="128" r="1" />
<circle class="star" cx="374" cy="282" r="1.5" />
<circle class="star" cx="395" cy="281" r="1" />
<circle class="star" cx="760" cy="415" r="1" />
<circle class="star" cx="570" cy="27" r="1" />
<circle class="star" cx="963" cy="65" r="1.5" />
<circle class="star" cx="880" cy="322" r="1" />
<circle class="star" cx="364" cy="393" r="1.5" />
<circle class="star" cx="248" cy="212" r="1" />
<circle class="star" cx="610" cy="372" r="1" />
<circle class="star" cx="743" cy="35" r="1.5" />
<circle class="star" cx="985" cy="86" r="1.5" />
<circle class="star" cx="92" cy="352" r="1.5" />
<circle class="star" cx="938" cy="277" r="1.5" />
<circle class="star" cx="47" cy="197" r="1.5" />
<circle class="star" cx="768" cy="224" r="2" />
<circle class="star" cx="203" cy="387" r="1" />
<circle class="star" cx="37" cy="316" r="1.5" />
<circle class="star" cx="1081" cy="208" r="1" />
<circle class="star" cx="57" cy="64" r="2" />
<circle class="star" cx="1060" cy="207" r="1.5" />
<circle class="star" cx="51" cy="121" r="1.5" />
<circle class="star" cx="295" cy="20" r="1.5" />
<circle class="star" cx="106" cy="60" r="2" />
<circle class="star" cx="92" cy="173" r="1.5" />
<circle class="star" cx="446" cy="258" r="1.5" />
<circle class="star" cx="995" cy="313" r="1" />
<circle class="star" cx="728" cy="344" r="1" />
<circle class="star" cx="1024" cy="93" r="1" />
<circle class="star" cx="216" cy="244" r="2" />
<circle class="star" cx="467" cy="293" r="2" />
<circle class="star" cx="112" cy="140" r="2" />
<circle class="star" cx="1141" cy="20" r="2" />
<circle class="star" cx="456" cy="251" r="2" />
<circle class="star" cx="24" cy="164" r="1.5" />
<circle class="star" cx="1150" cy="87" r="1.5" />
<circle class="star" cx="985" cy="372" r="1" />
<circle class="star" cx="560" cy="138" r="1.5" />
<circle class="star" cx="124" cy="123" r="1" />
<circle class="star" cx="127" cy="31" r="2" />
<circle class="star" cx="842" cy="166" r="1" />
<circle class="star" cx="804" cy="240" r="2" />
<circle class="star" cx="430" cy="261" r="1" />
<circle class="star" cx="525" cy="310" r="1" />
<circle class="star" cx="864" cy="281" r="2" />
<circle class="star" cx="589" cy="64" r="2" />
<circle class="star" cx="404" cy="356" r="1.5" />
<circle class="star" cx="97" cy="87" r="1.5" />
<circle class="star" cx="276" cy="224" r="2" />
<circle class="star" cx="180" cy="196" r="1.5" />
<circle class="star" cx="771" cy="365" r="2" />
    <g><line class="rain" x1="40" y1="-20" x2="22" y2="60" style="animation-delay:-0.00s" />
<line class="rain" x1="86" y1="-20" x2="68" y2="60" style="animation-delay:-0.13s" />
<line class="rain" x1="132" y1="-20" x2="114" y2="60" style="animation-delay:-0.26s" />
<line class="rain" x1="178" y1="-20" x2="160" y2="60" style="animation-delay:-0.39s" />
<line class="rain" x1="224" y1="-20" x2="206" y2="60" style="animation-delay:-0.52s" />
<line class="rain" x1="270" y1="-20" x2="252" y2="60" style="animation-delay:-0.65s" />
<line class="rain" x1="316" y1="-20" x2="298" y2="60" style="animation-delay:-0.78s" />
<line class="rain" x1="362" y1="-20" x2="344" y2="60" style="animation-delay:-0.91s" />
<line class="rain" x1="408" y1="-20" x2="390" y2="60" style="animation-delay:-1.04s" />
<line class="rain" x1="454" y1="-20" x2="436" y2="60" style="animation-delay:-1.17s" />
<line class="rain" x1="500" y1="-20" x2="482" y2="60" style="animation-delay:-1.30s" />
<line class="rain" x1="546" y1="-20" x2="528" y2="60" style="animation-delay:-1.43s" />
<line class="rain" x1="592" y1="-20" x2="574" y2="60" style="animation-delay:-1.56s" />
<line class="rain" x1="638" y1="-20" x2="620" y2="60" style="animation-delay:-1.69s" />
<line class="rain" x1="684" y1="-20" x2="666" y2="60" style="animation-delay:-1.82s" />
<line class="rain" x1="730" y1="-20" x2="712" y2="60" style="animation-delay:-1.95s" />
<line class="rain" x1="776" y1="-20" x2="758" y2="60" style="animation-delay:-2.08s" />
<line class="rain" x1="822" y1="-20" x2="804" y2="60" style="animation-delay:-2.21s" />
<line class="rain" x1="868" y1="-20" x2="850" y2="60" style="animation-delay:-2.34s" />
<line class="rain" x1="914" y1="-20" x2="896" y2="60" style="animation-delay:-2.47s" />
<line class="rain" x1="960" y1="-20" x2="942" y2="60" style="animation-delay:-2.60s" />
<line class="rain" x1="1006" y1="-20" x2="988" y2="60" style="animation-delay:-2.73s" />
<line class="rain" x1="1052" y1="-20" x2="1034" y2="60" style="animation-delay:-2.86s" />
<line class="rain" x1="1098" y1="-20" x2="1080" y2="60" style="animation-delay:-2.99s" />
<line class="rain" x1="1144" y1="-20" x2="1126" y2="60" style="animation-delay:-3.12s" /></g>
    <path class="horizon" d="M0 472 C180 430 270 510 420 468 C575 424 690 488 828 452 C975 412 1065 455 1200 426 L1200 630 L0 630 Z"/>
    <g opacity=".8">
      <line class="grid" x1="0" y1="500" x2="600" y2="630"/><line class="grid" x1="80" y1="500" x2="600" y2="630"/><line class="grid" x1="160" y1="500" x2="600" y2="630"/><line class="grid" x1="240" y1="500" x2="600" y2="630"/><line class="grid" x1="320" y1="500" x2="600" y2="630"/><line class="grid" x1="400" y1="500" x2="600" y2="630"/><line class="grid" x1="480" y1="500" x2="600" y2="630"/><line class="grid" x1="560" y1="500" x2="600" y2="630"/><line class="grid" x1="640" y1="500" x2="600" y2="630"/><line class="grid" x1="720" y1="500" x2="600" y2="630"/><line class="grid" x1="800" y1="500" x2="600" y2="630"/><line class="grid" x1="880" y1="500" x2="600" y2="630"/><line class="grid" x1="960" y1="500" x2="600" y2="630"/><line class="grid" x1="1040" y1="500" x2="600" y2="630"/><line class="grid" x1="1120" y1="500" x2="600" y2="630"/><line class="grid" x1="1200" y1="500" x2="600" y2="630"/>
      <line class="grid" x1="0" y1="500" x2="1200" y2="500"/><line class="grid" x1="0" y1="526" x2="1200" y2="526"/><line class="grid" x1="0" y1="552" x2="1200" y2="552"/><line class="grid" x1="0" y1="578" x2="1200" y2="578"/><line class="grid" x1="0" y1="604" x2="1200" y2="604"/><line class="grid" x1="0" y1="630" x2="1200" y2="630"/>
    </g>
    <text x="48" y="62" class="title">David Vuy // Profile OS</text>
    <text x="50" y="92" class="subtitle">A living GitHub front page generated 2026-07-08 20:40 UTC</text>

    <rect x="42" y="122" width="418" height="172" rx="8" class="terminal"/>
    <text x="64" y="158" class="term line-0">$ ecosystem scan --owner davidvuy</text>
<text x="64" y="188" class="term line-1">mood=stormy weather=digital rain</text>
<text x="64" y="218" class="term line-2">health=100 activity=100 pressure=18</text>
<text x="64" y="248" class="term line-3">languages=Python, TypeScript, JavaScript</text>

    <g transform="translate(48 330)">
      <text class="metric-label" x="0" y="0">Health</text>
      <text class="metric" x="0" y="34">100</text>
      <text class="metric-label" x="130" y="0">Activity</text>
      <text class="metric" x="130" y="34">100</text>
      <text class="metric-label" x="286" y="0">Pressure</text>
      <text class="metric" x="286" y="34">18</text>
    </g>

    <g class="creature" filter="url(#glow)">
      <ellipse cx="600" cy="388" rx="118" ry="78" fill="#f97316" opacity=".92"/>
      <ellipse cx="558" cy="360" rx="20" ry="24" class="eye"/>
      <ellipse cx="646" cy="360" rx="20" ry="24" class="eye"/>
      <path d="M510 375 q30 -36 60 0" stroke="#020617" stroke-width="7" stroke-linecap="round" fill="none"/>
      <path d="M632 375 q30 36 60 0" stroke="#020617" stroke-width="7" stroke-linecap="round" fill="none"/>
      <path d="M515 310 q-48 -56 -88 -8" stroke="#fef3c7" stroke-width="8" stroke-linecap="round" fill="none"/>
      <path d="M685 310 q48 -56 88 -8" stroke="#fef3c7" stroke-width="8" stroke-linecap="round" fill="none"/>
    </g>

    <g>
      <g class="repo repo-0" style="animation-delay:-0.0s"><circle cx="898.0" cy="300.0" r="8" fill="#7f1d1d" opacity="0.82"/><text x="914.0" y="304.0" text-anchor="start" class="repo-label">davidvuy</text></g>
<g class="repo repo-1" style="animation-delay:-0.7s"><circle cx="665.0" cy="365.3" r="8" fill="#f97316" opacity="0.82"/><text x="681.0" y="369.3" text-anchor="start" class="repo-label">ai-app-care-os</text></g>
<g class="repo repo-2" style="animation-delay:-1.4s"><circle cx="684.0" cy="253.8" r="8" fill="#7f1d1d" opacity="0.82"/><text x="700.0" y="257.8" text-anchor="start" class="repo-label">mortydex-explorer-rest</text></g>
    </g>

    <text x="50" y="552" class="subtitle"><tspan x="50" dy="0">davidvuy is in a stormy cycle: 3 public project signals, 59 recent</tspan>
<tspan x="50" dy="26">pushes, 0 open issue markers, and 1 healthy workflow pulses.</tspan></text>
    <text x="50" y="612" class="subtitle">Repos 3 | Recent events 60 | Weather digital rain</text>
  </g>
</svg>
