<svg xmlns="http://www.w3.org/2000/svg" width="1200" height="560" viewBox="0 0 1200 560" role="img" aria-labelledby="title desc">
  <title id="title">Profile OS for David Vuy</title>
  <desc id="desc">davidvuy is shipping: 3 public repos, 79 recent push events, 0 open issue signals, 2 successful workflow pulses.</desc>
  <style>
    :root { color-scheme: dark; }
    .bg { fill: #08090d; }
    .grid { stroke: #1f2937; stroke-width: 1; opacity: .48; }
    .panel { fill: #10141c; stroke: #253044; stroke-width: 1; }
    .panel-hot { fill: #141116; stroke: #f59e0b; stroke-width: 1; }
    .eyebrow { font: 700 13px ui-monospace, SFMono-Regular, Menlo, Consolas, monospace; fill: #2dd4bf; letter-spacing: 0; }
    .title { font: 800 58px ui-monospace, SFMono-Regular, Menlo, Consolas, monospace; fill: #f8fafc; letter-spacing: 0; }
    .subtitle { font: 600 19px ui-monospace, SFMono-Regular, Menlo, Consolas, monospace; fill: #cbd5e1; }
    .small { font: 600 14px ui-monospace, SFMono-Regular, Menlo, Consolas, monospace; fill: #94a3b8; }
    .mono { font: 650 16px ui-monospace, SFMono-Regular, Menlo, Consolas, monospace; fill: #d1fae5; }
    .metric { font: 800 34px ui-monospace, SFMono-Regular, Menlo, Consolas, monospace; fill: #f8fafc; }
    .label { font: 700 12px ui-monospace, SFMono-Regular, Menlo, Consolas, monospace; fill: #64748b; }
    .repo-name { font: 650 15px ui-monospace, SFMono-Regular, Menlo, Consolas, monospace; fill: #e5e7eb; }
    .repo-meta { font: 650 12px ui-monospace, SFMono-Regular, Menlo, Consolas, monospace; fill: #94a3b8; }
    .scan { fill: #2dd4bf; opacity: .15; animation: scan 5s linear infinite; }
    .bar { animation: barPulse 4s ease-in-out infinite; }
    .pulse { animation: pulse 2.8s ease-in-out infinite; }
    @keyframes scan { 0% { transform: translateX(-260px); } 100% { transform: translateX(1220px); } }
    @keyframes barPulse { 0%, 100% { opacity: .42; } 50% { opacity: .95; } }
    @keyframes pulse { 0%, 100% { opacity: .55; } 50% { opacity: 1; } }
    @media (prefers-reduced-motion: reduce) { * { animation: none !important; } }
  </style>
  <defs>
    <linearGradient id="edge" x1="0" y1="0" x2="1" y2="1">
      <stop offset="0" stop-color="#2dd4bf"/>
      <stop offset=".52" stop-color="#f59e0b"/>
      <stop offset="1" stop-color="#fb7185"/>
    </linearGradient>
  </defs>
  <rect class="bg" width="1200" height="560"/>
  <line class="grid" x1="40" y1="0" x2="40" y2="560"/><line class="grid" x1="80" y1="0" x2="80" y2="560"/><line class="grid" x1="120" y1="0" x2="120" y2="560"/><line class="grid" x1="160" y1="0" x2="160" y2="560"/><line class="grid" x1="200" y1="0" x2="200" y2="560"/><line class="grid" x1="240" y1="0" x2="240" y2="560"/><line class="grid" x1="280" y1="0" x2="280" y2="560"/><line class="grid" x1="320" y1="0" x2="320" y2="560"/><line class="grid" x1="360" y1="0" x2="360" y2="560"/><line class="grid" x1="400" y1="0" x2="400" y2="560"/><line class="grid" x1="440" y1="0" x2="440" y2="560"/><line class="grid" x1="480" y1="0" x2="480" y2="560"/><line class="grid" x1="520" y1="0" x2="520" y2="560"/><line class="grid" x1="560" y1="0" x2="560" y2="560"/><line class="grid" x1="600" y1="0" x2="600" y2="560"/><line class="grid" x1="640" y1="0" x2="640" y2="560"/><line class="grid" x1="680" y1="0" x2="680" y2="560"/><line class="grid" x1="720" y1="0" x2="720" y2="560"/><line class="grid" x1="760" y1="0" x2="760" y2="560"/><line class="grid" x1="800" y1="0" x2="800" y2="560"/><line class="grid" x1="840" y1="0" x2="840" y2="560"/><line class="grid" x1="880" y1="0" x2="880" y2="560"/><line class="grid" x1="920" y1="0" x2="920" y2="560"/><line class="grid" x1="960" y1="0" x2="960" y2="560"/><line class="grid" x1="1000" y1="0" x2="1000" y2="560"/><line class="grid" x1="1040" y1="0" x2="1040" y2="560"/><line class="grid" x1="1080" y1="0" x2="1080" y2="560"/><line class="grid" x1="1120" y1="0" x2="1120" y2="560"/><line class="grid" x1="1160" y1="0" x2="1160" y2="560"/>
  <line class="grid" x1="0" y1="30" x2="1200" y2="30"/><line class="grid" x1="0" y1="60" x2="1200" y2="60"/><line class="grid" x1="0" y1="90" x2="1200" y2="90"/><line class="grid" x1="0" y1="120" x2="1200" y2="120"/><line class="grid" x1="0" y1="150" x2="1200" y2="150"/><line class="grid" x1="0" y1="180" x2="1200" y2="180"/><line class="grid" x1="0" y1="210" x2="1200" y2="210"/><line class="grid" x1="0" y1="240" x2="1200" y2="240"/><line class="grid" x1="0" y1="270" x2="1200" y2="270"/><line class="grid" x1="0" y1="300" x2="1200" y2="300"/><line class="grid" x1="0" y1="330" x2="1200" y2="330"/><line class="grid" x1="0" y1="360" x2="1200" y2="360"/><line class="grid" x1="0" y1="390" x2="1200" y2="390"/><line class="grid" x1="0" y1="420" x2="1200" y2="420"/><line class="grid" x1="0" y1="450" x2="1200" y2="450"/><line class="grid" x1="0" y1="480" x2="1200" y2="480"/><line class="grid" x1="0" y1="510" x2="1200" y2="510"/><line class="grid" x1="0" y1="540" x2="1200" y2="540"/>
  <rect x="26" y="26" width="1148" height="508" rx="8" fill="none" stroke="url(#edge)" stroke-width="2"/>
  <rect class="scan" x="0" y="26" width="180" height="508"/>
  <text x="70" y="78" class="eyebrow">PROFILE_OS / PUBLIC SIGNAL BOARD / 2026-07-08 20:56 UTC</text>
  <text x="68" y="148" class="title">David Vuy</text>
  <text x="72" y="185" class="subtitle">AI-native prototypes, automation systems, and launchable product slices.</text>
  <rect x="70" y="220" width="550" height="190" rx="8" class="panel"/>
  <text x="94" y="258" class="eyebrow">TERMINAL SNAPSHOT</text>
  <text x="76" y="302" class="mono">$ scan github://davidvuy</text>
<text x="76" y="329" class="mono">mode=shipping health=100 activity=100</text>
<text x="76" y="356" class="mono">languages=Python, TypeScript, JavaScript</text>
<text x="76" y="383" class="mono">loop=idea -&gt; prototype -&gt; verify -&gt; ship</text>
  <rect x="656" y="220" width="474" height="190" rx="8" class="panel"/>
  <text x="680" y="258" class="eyebrow">REPOSITORY STREAM</text>
  <text x="706" y="302" class="repo-name">davidvuy</text><rect x="1018" y="290" width="24" height="8" fill="#22c55e" opacity=".78"/><text x="1150" y="302" text-anchor="end" class="repo-meta">Python</text><text x="706" y="328" class="repo-name">ai-app-care-os</text><rect x="1018" y="316" width="24" height="8" fill="#38bdf8" opacity=".78"/><text x="1150" y="328" text-anchor="end" class="repo-meta">TypeScript</text><text x="706" y="354" class="repo-name">mortydex-explorer-restart</text><rect x="1018" y="342" width="24" height="8" fill="#facc15" opacity=".78"/><text x="1150" y="354" text-anchor="end" class="repo-meta">JavaScript</text>
  <g transform="translate(72 438)">
    <rect x="0" y="0" width="144" height="66" rx="8" class="panel"/>
    <text x="18" y="22" class="label">HEALTH</text>
    <text x="18" y="54" class="metric">100</text>
    <rect x="166" y="0" width="144" height="66" rx="8" class="panel"/>
    <text x="184" y="22" class="label">ACTIVITY</text>
    <text x="184" y="54" class="metric">100</text>
    <rect x="332" y="0" width="144" height="66" rx="8" class="panel-hot"/>
    <text x="350" y="22" class="label">PRESSURE</text>
    <text x="350" y="54" class="metric">10</text>
    <circle cx="522" cy="33" r="8" fill="#22c55e" class="pulse"/>
    <text x="542" y="39" class="small">mode: shipping</text>
  </g>
  <g transform="translate(682 438)">
    <text x="0" y="0" class="eyebrow">RECENT EVENT DENSITY</text>
    <rect class="bar" x="0.0" y="25.4" width="6.2" height="54.6" fill="#2dd4bf" opacity="0.38"/>
<rect class="bar" x="10.2" y="25.4" width="6.2" height="54.6" fill="#2dd4bf" opacity="0.50"/>
<rect class="bar" x="20.5" y="25.4" width="6.2" height="54.6" fill="#2dd4bf" opacity="0.62"/>
<rect class="bar" x="30.7" y="58.9" width="6.2" height="21.1" fill="#2dd4bf" opacity="0.74"/>
<rect class="bar" x="41.0" y="25.4" width="6.2" height="54.6" fill="#2dd4bf" opacity="0.38"/>
<rect class="bar" x="51.2" y="25.4" width="6.2" height="54.6" fill="#2dd4bf" opacity="0.50"/>
<rect class="bar" x="61.4" y="25.4" width="6.2" height="54.6" fill="#2dd4bf" opacity="0.62"/>
<rect class="bar" x="71.7" y="25.4" width="6.2" height="54.6" fill="#2dd4bf" opacity="0.74"/>
<rect class="bar" x="81.9" y="25.4" width="6.2" height="54.6" fill="#2dd4bf" opacity="0.38"/>
<rect class="bar" x="92.1" y="25.4" width="6.2" height="54.6" fill="#2dd4bf" opacity="0.50"/>
<rect class="bar" x="102.4" y="25.4" width="6.2" height="54.6" fill="#2dd4bf" opacity="0.62"/>
<rect class="bar" x="112.6" y="25.4" width="6.2" height="54.6" fill="#2dd4bf" opacity="0.74"/>
<rect class="bar" x="122.9" y="25.4" width="6.2" height="54.6" fill="#2dd4bf" opacity="0.38"/>
<rect class="bar" x="133.1" y="25.4" width="6.2" height="54.6" fill="#2dd4bf" opacity="0.50"/>
<rect class="bar" x="143.3" y="25.4" width="6.2" height="54.6" fill="#2dd4bf" opacity="0.62"/>
<rect class="bar" x="153.6" y="25.4" width="6.2" height="54.6" fill="#2dd4bf" opacity="0.74"/>
<rect class="bar" x="163.8" y="25.4" width="6.2" height="54.6" fill="#2dd4bf" opacity="0.38"/>
<rect class="bar" x="174.0" y="25.4" width="6.2" height="54.6" fill="#2dd4bf" opacity="0.50"/>
<rect class="bar" x="184.3" y="25.4" width="6.2" height="54.6" fill="#2dd4bf" opacity="0.62"/>
<rect class="bar" x="194.5" y="25.4" width="6.2" height="54.6" fill="#2dd4bf" opacity="0.74"/>
<rect class="bar" x="204.8" y="25.4" width="6.2" height="54.6" fill="#2dd4bf" opacity="0.38"/>
<rect class="bar" x="215.0" y="25.4" width="6.2" height="54.6" fill="#2dd4bf" opacity="0.50"/>
<rect class="bar" x="225.2" y="25.4" width="6.2" height="54.6" fill="#2dd4bf" opacity="0.62"/>
<rect class="bar" x="235.5" y="25.4" width="6.2" height="54.6" fill="#2dd4bf" opacity="0.74"/>
<rect class="bar" x="245.7" y="25.4" width="6.2" height="54.6" fill="#2dd4bf" opacity="0.38"/>
<rect class="bar" x="256.0" y="25.4" width="6.2" height="54.6" fill="#2dd4bf" opacity="0.50"/>
<rect class="bar" x="266.2" y="25.4" width="6.2" height="54.6" fill="#2dd4bf" opacity="0.62"/>
<rect class="bar" x="276.4" y="25.4" width="6.2" height="54.6" fill="#2dd4bf" opacity="0.74"/>
<rect class="bar" x="286.7" y="25.4" width="6.2" height="54.6" fill="#2dd4bf" opacity="0.38"/>
<rect class="bar" x="296.9" y="25.4" width="6.2" height="54.6" fill="#2dd4bf" opacity="0.50"/>
<rect class="bar" x="307.1" y="25.4" width="6.2" height="54.6" fill="#2dd4bf" opacity="0.62"/>
<rect class="bar" x="317.4" y="25.4" width="6.2" height="54.6" fill="#2dd4bf" opacity="0.74"/>
<rect class="bar" x="327.6" y="25.4" width="6.2" height="54.6" fill="#2dd4bf" opacity="0.38"/>
<rect class="bar" x="337.9" y="25.4" width="6.2" height="54.6" fill="#2dd4bf" opacity="0.50"/>
<rect class="bar" x="348.1" y="25.4" width="6.2" height="54.6" fill="#2dd4bf" opacity="0.62"/>
<rect class="bar" x="358.3" y="25.4" width="6.2" height="54.6" fill="#2dd4bf" opacity="0.74"/>
<rect class="bar" x="368.6" y="25.4" width="6.2" height="54.6" fill="#2dd4bf" opacity="0.38"/>
<rect class="bar" x="378.8" y="25.4" width="6.2" height="54.6" fill="#2dd4bf" opacity="0.50"/>
<rect class="bar" x="389.0" y="25.4" width="6.2" height="54.6" fill="#2dd4bf" opacity="0.62"/>
<rect class="bar" x="399.3" y="25.4" width="6.2" height="54.6" fill="#2dd4bf" opacity="0.74"/>
<rect class="bar" x="409.5" y="25.4" width="6.2" height="54.6" fill="#2dd4bf" opacity="0.38"/>
<rect class="bar" x="419.8" y="25.4" width="6.2" height="54.6" fill="#2dd4bf" opacity="0.50"/>
  </g>
  <text x="72" y="528" class="small"><tspan x="72" dy="0">davidvuy is shipping: 3 public repos, 79 recent push events, 0 open issue</tspan><tspan x="72" dy="18">signals, 2 successful workflow pulses.</tspan></text>
</svg>
