<svg xmlns="http://www.w3.org/2000/svg" width="1200" height="360" viewBox="0 0 1200 360" role="img" aria-label="David Vuy intro">
  <style>
    :root { color-scheme: dark; }
    .bg { fill: #0d1117; }
    .soft { fill: #161b22; stroke: #30363d; }
    .note { fill: #f6e58d; stroke: #8b949e; stroke-width: 1.4; }
    .name { font: 800 62px ui-monospace, SFMono-Regular, Menlo, Consolas, monospace; fill: #f0f6fc; }
    .line { font: 650 24px ui-monospace, SFMono-Regular, Menlo, Consolas, monospace; fill: #c9d1d9; }
    .tiny { font: 650 15px ui-monospace, SFMono-Regular, Menlo, Consolas, monospace; fill: #8b949e; }
    .note-text { font: 700 15px ui-monospace, SFMono-Regular, Menlo, Consolas, monospace; fill: #1f2328; }
    .green { fill: #7ee787; }
    .blue { fill: #79c0ff; }
    .pink { fill: #ff7b72; }
    .yellow { fill: #d29922; }
    .wire { fill: none; stroke: #79c0ff; stroke-width: 2.2; stroke-linecap: round; stroke-dasharray: 2 9; opacity: .75; }
    .spark { fill: #ff7b72; opacity: .92; }
    .blink { animation: blink 1.7s steps(2) infinite; }
    .float { animation: float 4.5s ease-in-out infinite; }
    @keyframes blink { 50% { opacity: .15; } }
    @keyframes float { 0%, 100% { transform: translateY(0); } 50% { transform: translateY(-10px); } }
    @media (prefers-reduced-motion: reduce) { * { animation: none !important; } }
  </style>
  <rect class="bg" width="1200" height="360"/>
  <rect x="42" y="42" width="1116" height="276" rx="18" class="soft"/>
  <g class="float">
    <rect x="930" y="82" width="132" height="132" rx="18" fill="#111827" stroke="#30363d"/>
    <rect x="954" y="110" width="18" height="18" class="green"/>
    <rect x="984" y="110" width="18" height="18" class="blue"/>
    <rect x="1014" y="110" width="18" height="18" class="yellow"/>
    <rect x="954" y="140" width="78" height="14" fill="#30363d"/>
    <rect x="954" y="166" width="58" height="14" fill="#30363d"/>
    <circle cx="1044" cy="190" r="8" class="pink blink"/>
  </g>
  <text x="92" y="132" class="tiny">hello, i'm</text>
  <text x="90" y="202" class="name">David Vuy</text>
  <text x="94" y="248" class="line">I make apps, playful interfaces, and useful experiments.</text>
  <text x="94" y="286" class="tiny">recent bits: davidvuy / app-care-os / mortydex-explorer-restart</text>
  <path d="M 760 172 C 790 158, 820 154, 850 160" class="wire"/>
  <path d="M 762 188 C 792 202, 822 206, 850 198" class="wire"/>
  <g transform="rotate(-7 848 244)">
    <rect x="792" y="214" width="112" height="68" rx="8" class="note"/>
    <rect x="832" y="208" width="26" height="12" rx="4" fill="#79c0ff" opacity=".9"/>
    <text x="808" y="242" class="note-text">ship</text>
    <text x="808" y="262" class="note-text">trim repeat</text>
  </g>
  <circle cx="894" cy="90" r="3.5" class="spark blink"/>
  <circle cx="918" cy="72" r="2.8" class="spark"/>
  <circle cx="934" cy="98" r="2.4" class="spark blink"/>
  <circle cx="856" cy="110" r="5" class="green blink"/>
  <circle cx="882" cy="136" r="5" class="blue blink"/>
  <circle cx="838" cy="164" r="5" class="yellow blink"/>
</svg>
