<svg xmlns="http://www.w3.org/2000/svg" width="1200" height="360" viewBox="0 0 1200 360" role="img" aria-label="David Vuy intro">
  <style>
    :root { color-scheme: dark; }
    .bg { fill: #0d1117; }
    .soft { fill: #161b22; stroke: #30363d; }
    .note { fill: #f6e58d; stroke: #8b949e; stroke-width: 1.4; }
    .note-shadow { fill: #0d1117; opacity: .34; }
    .note-fold { fill: #f0d86a; stroke: #8b949e; stroke-width: 1.2; }
    .note-crease { fill: none; stroke: #d29922; stroke-width: 1.2; stroke-linecap: round; opacity: .9; }
    .name { font: 800 62px ui-monospace, SFMono-Regular, Menlo, Consolas, monospace; fill: #f0f6fc; }
    .line { font: 650 24px ui-monospace, SFMono-Regular, Menlo, Consolas, monospace; fill: #c9d1d9; }
    .tiny { font: 650 15px ui-monospace, SFMono-Regular, Menlo, Consolas, monospace; fill: #8b949e; }
    .note-text { font: 700 15px ui-monospace, SFMono-Regular, Menlo, Consolas, monospace; fill: #1f2328; }
    .pill { fill: #111827; stroke: #30363d; }
    .pill-text { font: 700 14px ui-monospace, SFMono-Regular, Menlo, Consolas, monospace; fill: #c9d1d9; }
    .green { fill: #7ee787; }
    .blue { fill: #79c0ff; }
    .pink { fill: #ff7b72; }
    .yellow { fill: #d29922; }
    .wire { fill: none; stroke: #79c0ff; stroke-width: 2.2; stroke-linecap: round; stroke-dasharray: 2 9; opacity: .75; }
    .scribble { fill: none; stroke: #7ee787; stroke-width: 3.6; stroke-linecap: round; stroke-linejoin: round; opacity: .9; }
    .orbit { fill: none; stroke: #ff7b72; stroke-width: 2.2; stroke-linecap: round; stroke-dasharray: 1 10; opacity: .72; }
    .planet { fill: #79c0ff; }
    .spark { fill: #ff7b72; opacity: .92; }
    .stamp-card { fill: #111827; stroke: #30363d; }
    .stamp-hole { fill: #0d1117; opacity: .95; }
    .stamp-title { font: 800 13px ui-monospace, SFMono-Regular, Menlo, Consolas, monospace; letter-spacing: 1.3px; fill: #f0f6fc; }
    .stamp-line { stroke: #30363d; stroke-width: 2; stroke-linecap: round; }
    .stamp-wave { fill: none; stroke: #79c0ff; stroke-width: 2.2; stroke-linecap: round; stroke-linejoin: round; opacity: .9; }
    .plane-path { fill: none; stroke: #8b949e; stroke-width: 1.8; stroke-linecap: round; stroke-dasharray: 4 10; opacity: .55; }
    .plane { fill: #f0f6fc; opacity: .95; }
    .plane-group { animation: drift 7.5s ease-in-out infinite; }
    .postmark-ring { fill: none; stroke: #8b949e; stroke-width: 1.4; stroke-dasharray: 3 7; opacity: .55; }
    .postmark-slice { fill: none; stroke: #79c0ff; stroke-width: 2; stroke-linecap: round; opacity: .85; }
    .postmark-text { font: 700 10px ui-monospace, SFMono-Regular, Menlo, Consolas, monospace; letter-spacing: 1.6px; fill: #c9d1d9; opacity: .78; }
    .tape { fill: #79c0ff; opacity: .82; }
    .tape-stripe { stroke: #f0f6fc; stroke-width: 1; stroke-linecap: round; opacity: .42; }
    .blink { animation: blink 1.7s steps(2) infinite; }
    .float { animation: float 4.5s ease-in-out infinite; }
    .orbit-spin { animation: orbit-spin 9s linear infinite; transform-origin: 182px 110px; }
    @keyframes drift { 0%, 100% { transform: translate(0, 0); } 50% { transform: translate(-10px, 6px); } }
    @keyframes blink { 50% { opacity: .15; } }
    @keyframes float { 0%, 100% { transform: translateY(0); } 50% { transform: translateY(-10px); } }
    @keyframes orbit-spin { from { transform: rotate(0deg); } to { transform: rotate(360deg); } }
    @media (prefers-reduced-motion: reduce) { * { animation: none !important; } }
  </style>
  <rect class="bg" width="1200" height="360"/>
  <rect x="42" y="42" width="1116" height="276" rx="18" class="soft"/>
  <g class="orbit-spin">
    <ellipse cx="182" cy="110" rx="72" ry="28" class="orbit"/>
    <circle cx="254" cy="110" r="5" class="planet"/>
  </g>
  <g class="float">
    <rect x="930" y="82" width="132" height="132" rx="18" class="stamp-card"/>
    <circle cx="944" cy="96" r="4" class="stamp-hole"/><circle cx="960" cy="96" r="4" class="stamp-hole"/><circle cx="976" cy="96" r="4" class="stamp-hole"/><circle cx="992" cy="96" r="4" class="stamp-hole"/><circle cx="1008" cy="96" r="4" class="stamp-hole"/><circle cx="1024" cy="96" r="4" class="stamp-hole"/><circle cx="1040" cy="96" r="4" class="stamp-hole"/>
    <circle cx="944" cy="200" r="4" class="stamp-hole"/><circle cx="960" cy="200" r="4" class="stamp-hole"/><circle cx="976" cy="200" r="4" class="stamp-hole"/><circle cx="992" cy="200" r="4" class="stamp-hole"/><circle cx="1008" cy="200" r="4" class="stamp-hole"/><circle cx="1024" cy="200" r="4" class="stamp-hole"/><circle cx="1040" cy="200" r="4" class="stamp-hole"/>
    <circle cx="944" cy="112" r="4" class="stamp-hole"/><circle cx="944" cy="128" r="4" class="stamp-hole"/><circle cx="944" cy="144" r="4" class="stamp-hole"/><circle cx="944" cy="160" r="4" class="stamp-hole"/><circle cx="944" cy="176" r="4" class="stamp-hole"/><circle cx="944" cy="192" r="4" class="stamp-hole"/>
    <circle cx="1048" cy="112" r="4" class="stamp-hole"/><circle cx="1048" cy="128" r="4" class="stamp-hole"/><circle cx="1048" cy="144" r="4" class="stamp-hole"/><circle cx="1048" cy="160" r="4" class="stamp-hole"/><circle cx="1048" cy="176" r="4" class="stamp-hole"/><circle cx="1048" cy="192" r="4" class="stamp-hole"/>
    <text x="956" y="118" class="stamp-title">BY HAND</text>
    <path d="M 956 128 H 1038" class="stamp-line"/>
    <path d="M 960 168 C 974 148, 990 156, 1002 168 S 1028 188, 1038 160" class="stamp-wave"/>
    <circle cx="972" cy="150" r="5" class="green"/>
    <circle cx="995" cy="182" r="5" class="blue"/>
    <circle cx="1024" cy="146" r="5" class="yellow"/>
    <circle cx="1032" cy="184" r="7" class="pink blink"/>
  </g>
  <g transform="translate(860 106) rotate(-10)">
    <circle cx="0" cy="0" r="32" class="postmark-ring"/>
    <circle cx="0" cy="0" r="21" class="postmark-ring"/>
    <path d="M -17 -6 C -7 -14, 6 -14, 16 -6" class="postmark-slice"/>
    <path d="M -15 8 C -5 16, 7 16, 17 8" class="postmark-slice"/>
    <text x="-18" y="3" class="postmark-text">OPEN</text>
  </g>
  <path d="M 742 88 C 786 66, 838 64, 884 86 S 972 126, 1030 100" class="plane-path"/>
  <g class="plane-group" transform="translate(1024 98) rotate(6)">
    <path d="M 0 0 L 24 8 L 0 16 L 6 8 Z" class="plane"/>
    <path d="M 6 8 L 24 8" class="plane-path"/>
  </g>
  <text x="92" y="132" class="tiny">hello, i'm</text>
  <text x="90" y="202" class="name">David Vuy</text>
  <path d="M 94 214 C 164 232, 255 230, 356 214 C 388 209, 408 207, 430 214" class="scribble"/>
  <text x="94" y="248" class="line">I make apps, playful interfaces, and useful experiments.</text>
  <text x="94" y="286" class="tiny">recent bits</text>
  <g transform="translate(94 268)"><rect width="112" height="32" rx="16" class="pill"/><circle cx="16" cy="16" r="4" fill="#3178c6"/><text x="30" y="21" class="pill-text">care os</text></g><g transform="translate(218 268)"><rect width="185" height="32" rx="16" class="pill"/><circle cx="16" cy="16" r="4" fill="#f1e05a"/><text x="30" y="21" class="pill-text">mortydex explorer</text></g>
  <path d="M 760 172 C 790 158, 820 154, 850 160" class="wire"/>
  <path d="M 762 188 C 792 202, 822 206, 850 198" class="wire"/>
  <g transform="rotate(-7 848 244)">
    <rect x="796" y="218" width="118" height="68" rx="8" class="note-shadow"/>
    <rect x="792" y="214" width="118" height="68" rx="8" class="note"/>
    <path d="M 886 214 H 902 Q 910 214 910 222 V 238 Z" class="note-fold"/>
    <path d="M 886 214 L 910 238" class="note-crease"/>
    <rect x="832" y="208" width="26" height="12" rx="4" fill="#79c0ff" opacity=".9"/>
    <g transform="translate(804 208) rotate(-9)">
      <rect width="24" height="10" rx="3" class="tape"/>
      <path d="M 5 2.5 H 19 M 5 5 H 19 M 5 7.5 H 19" class="tape-stripe"/>
    </g>
    <g transform="translate(878 210) rotate(11)">
      <rect width="22" height="10" rx="3" class="tape"/>
      <path d="M 4 2.5 H 18 M 4 5 H 18 M 4 7.5 H 18" class="tape-stripe"/>
    </g>
    <text x="808" y="242" class="note-text">lately</text>
    <text x="808" y="262" class="note-text">care os</text>
  </g>
  <circle cx="894" cy="90" r="3.5" class="spark blink"/>
  <circle cx="918" cy="72" r="2.8" class="spark"/>
  <circle cx="934" cy="98" r="2.4" class="spark blink"/>
  <circle cx="856" cy="110" r="5" class="green blink"/>
  <circle cx="882" cy="136" r="5" class="blue blink"/>
  <circle cx="838" cy="164" r="5" class="yellow blink"/>
</svg>
