<svg xmlns="http://www.w3.org/2000/svg" width="1200" height="360" viewBox="0 0 1200 360" role="img" aria-label="David Vuy intro">
  <style>
    :root { color-scheme: dark; }
    .bg { fill: #0d1117; }
    .soft { fill: #161b22; stroke: #30363d; }
    .punch-hole { fill: #0d1117; stroke: #30363d; stroke-width: 1.2; opacity: .96; }
    .punch-shadow { fill: #79c0ff; opacity: .08; }
    .corner-stitch { fill: none; stroke: #8b949e; stroke-width: 1.5; stroke-linecap: round; stroke-dasharray: 1.5 6; opacity: .72; }
    .note { fill: #f6e58d; stroke: #8b949e; stroke-width: 1.4; }
    .note-shadow { fill: #0d1117; opacity: .34; }
    .note-fold { fill: #f0d86a; stroke: #8b949e; stroke-width: 1.2; }
    .note-crease { fill: none; stroke: #d29922; stroke-width: 1.2; stroke-linecap: round; opacity: .9; }
    .note-rule { fill: none; stroke: #79c0ff; stroke-width: 1.1; stroke-linecap: round; opacity: .28; }
    .name { font: 800 62px ui-monospace, SFMono-Regular, Menlo, Consolas, monospace; fill: #f0f6fc; }
    .line { font: 650 24px ui-monospace, SFMono-Regular, Menlo, Consolas, monospace; fill: #c9d1d9; }
    .tiny { font: 650 15px ui-monospace, SFMono-Regular, Menlo, Consolas, monospace; fill: #8b949e; }
    .note-text { font: 700 15px ui-monospace, SFMono-Regular, Menlo, Consolas, monospace; fill: #1f2328; }
    .note-chip-text { font: 800 9px ui-monospace, SFMono-Regular, Menlo, Consolas, monospace; letter-spacing: 1px; fill: #f0f6fc; text-anchor: middle; }
    .pill { fill: #111827; stroke: #30363d; }
    .pill-text { font: 700 14px ui-monospace, SFMono-Regular, Menlo, Consolas, monospace; fill: #c9d1d9; }
    .pill-thread { fill: none; stroke-width: 1.8; stroke-linecap: round; stroke-dasharray: 2 6; opacity: .78; }
    .green { fill: #7ee787; }
    .blue { fill: #79c0ff; }
    .pink { fill: #ff7b72; }
    .yellow { fill: #d29922; }
    .wire { fill: none; stroke: #79c0ff; stroke-width: 2.2; stroke-linecap: round; stroke-dasharray: 2 9; opacity: .75; }
    .scribble { fill: none; stroke: #7ee787; stroke-width: 3.6; stroke-linecap: round; stroke-linejoin: round; opacity: .9; }
    .orbit { fill: none; stroke: #ff7b72; stroke-width: 2.2; stroke-linecap: round; stroke-dasharray: 1 10; opacity: .72; }
    .planet { fill: #79c0ff; }
    .spark { fill: #ff7b72; opacity: .92; }
    .stamp-card { fill: #111827; stroke: #30363d; }
    .stamp-hole { fill: #0d1117; opacity: .95; }
    .stamp-title { font: 800 13px ui-monospace, SFMono-Regular, Menlo, Consolas, monospace; letter-spacing: 1.3px; fill: #f0f6fc; }
    .stamp-value { font: 800 18px ui-monospace, SFMono-Regular, Menlo, Consolas, monospace; letter-spacing: .8px; fill: #f0f6fc; opacity: .9; text-anchor: end; }
    .stamp-corner-line { fill: none; stroke: #30363d; stroke-width: 1.4; stroke-linecap: round; opacity: .9; }
    .stamp-line { stroke: #30363d; stroke-width: 2; stroke-linecap: round; }
    .stamp-wave { fill: none; stroke: #79c0ff; stroke-width: 2.2; stroke-linecap: round; stroke-linejoin: round; opacity: .9; }
    .plane-path { fill: none; stroke: #8b949e; stroke-width: 1.8; stroke-linecap: round; stroke-dasharray: 4 10; opacity: .55; }
    .plane { fill: #f0f6fc; opacity: .95; }
    .plane-group { animation: drift 7.5s ease-in-out infinite; }
    .postmark-ring { fill: none; stroke: #8b949e; stroke-width: 1.4; stroke-dasharray: 3 7; opacity: .55; }
    .postmark-slice { fill: none; stroke: #79c0ff; stroke-width: 2; stroke-linecap: round; opacity: .85; }
    .cancel-line { fill: none; stroke: #79c0ff; stroke-width: 2; stroke-linecap: round; opacity: .62; }
    .postmark-text { font: 700 10px ui-monospace, SFMono-Regular, Menlo, Consolas, monospace; letter-spacing: 1.6px; fill: #c9d1d9; opacity: .78; }
    .postmark-date { font: 800 12px ui-monospace, SFMono-Regular, Menlo, Consolas, monospace; letter-spacing: 1.1px; fill: #f0f6fc; opacity: .92; }
    .tape { fill: #79c0ff; opacity: .82; }
    .tape-stripe { stroke: #f0f6fc; stroke-width: 1; stroke-linecap: round; opacity: .42; }
    .paperclip { fill: none; stroke: #f0f6fc; stroke-width: 2.2; stroke-linecap: round; stroke-linejoin: round; opacity: .9; }
    .seal { fill: #ff7b72; stroke: #30363d; stroke-width: 1.2; }
    .seal-fold { fill: #ffa198; opacity: .9; }
    .seal-dot { fill: #f0f6fc; opacity: .9; }
    .coffee-ring { fill: none; stroke: #d29922; stroke-width: 3; stroke-linecap: round; opacity: .2; }
    .coffee-drop { fill: #d29922; opacity: .14; }
    .airmail-red { fill: #ff7b72; opacity: .95; }
    .airmail-blue { fill: #79c0ff; opacity: .95; }
    .cursor { fill: #f6e58d; opacity: .95; }
    .signature { fill: none; stroke: #c9d1d9; stroke-width: 2.2; stroke-linecap: round; stroke-linejoin: round; opacity: .78; }
    .signature-dot { fill: #79c0ff; opacity: .9; }
    .doodle-star { fill: none; stroke: #f0f6fc; stroke-width: 1.8; stroke-linecap: round; stroke-linejoin: round; opacity: .88; }
    .doodle-star-fill { fill: #f6e58d; opacity: .95; }
    .doodle-star-dot { fill: #79c0ff; opacity: .88; }
    .city-road { fill: none; stroke: #8b949e; stroke-width: 5.5; stroke-linecap: round; opacity: .72; }
    .city-lane { fill: none; stroke: #f0f6fc; stroke-width: 1; stroke-linecap: round; stroke-dasharray: 2 5; opacity: .58; }
    .city-island { fill: #173b25; stroke: #7ee787; stroke-width: 1.8; }
    .city-zone { stroke: #0d1117; stroke-width: 1; }
    .button-thread { fill: none; stroke: #8b949e; stroke-width: 1.6; stroke-linecap: round; stroke-dasharray: 2 5; opacity: .78; }
    .button { fill: #111827; stroke: #8b949e; stroke-width: 1.4; }
    .button-ring { fill: none; stroke: #30363d; stroke-width: 1; opacity: .85; }
    .button-hole { fill: #f0f6fc; opacity: .9; }
    .button-stitch { fill: none; stroke: #79c0ff; stroke-width: 1.2; stroke-linecap: round; opacity: .8; }
    .mini-tag-string { fill: none; stroke: #8b949e; stroke-width: 1.5; stroke-linecap: round; stroke-dasharray: 2 6; opacity: .72; }
    .mini-tag { fill: #111827; stroke: #8b949e; stroke-width: 1.3; }
    .mini-tag-eyelet { fill: #0d1117; stroke: #8b949e; stroke-width: 1.1; }
    .mini-tag-kicker { font: 700 9px ui-monospace, SFMono-Regular, Menlo, Consolas, monospace; letter-spacing: 1.2px; fill: #8b949e; }
    .mini-tag-text { font: 800 14px ui-monospace, SFMono-Regular, Menlo, Consolas, monospace; fill: #f0f6fc; }
    .mini-tag-accent { fill: #79c0ff; opacity: .9; }
    .mini-tag-stitch { fill: none; stroke: #30363d; stroke-width: 1.1; stroke-linecap: round; stroke-dasharray: 1.5 4; opacity: .95; }
    .mini-tag-charm-ring { fill: none; stroke: #f0f6fc; stroke-width: 1.2; opacity: .82; }
    .mini-tag-charm-star { fill: #f6e58d; stroke: #8b949e; stroke-width: 1; stroke-linejoin: round; }
    .mini-tag-charm-dot { fill: #79c0ff; opacity: .92; }
    .blink { animation: blink 1.7s steps(2) infinite; }
    .float { animation: float 4.5s ease-in-out infinite; }
    .orbit-spin { animation: orbit-spin 9s linear infinite; transform-origin: 182px 110px; }
    @keyframes drift { 0%, 100% { transform: translate(0, 0); } 50% { transform: translate(-10px, 6px); } }
    @keyframes blink { 50% { opacity: .15; } }
    @keyframes float { 0%, 100% { transform: translateY(0); } 50% { transform: translateY(-10px); } }
    @keyframes orbit-spin { from { transform: rotate(0deg); } to { transform: rotate(360deg); } }
    @media (prefers-reduced-motion: reduce) { * { animation: none !important; } }
  </style>
  <rect class="bg" width="1200" height="360"/>
  <rect x="42" y="42" width="1116" height="276" rx="18" class="soft"/>
  <g transform="translate(56 0)">
    <ellipse cx="0" cy="108" rx="8" ry="12" class="punch-shadow"/>
    <ellipse cx="0" cy="180" rx="8" ry="12" class="punch-shadow"/>
    <ellipse cx="0" cy="252" rx="8" ry="12" class="punch-shadow"/>
    <ellipse cx="0" cy="108" rx="6.5" ry="10" class="punch-hole"/>
    <ellipse cx="0" cy="180" rx="6.5" ry="10" class="punch-hole"/>
    <ellipse cx="0" cy="252" rx="6.5" ry="10" class="punch-hole"/>
  </g>
  <path d="M 84 88 C 84 64, 98 50, 122 50" class="corner-stitch"/>
  <path d="M 84 110 C 84 78, 104 58, 136 58" class="corner-stitch"/>
  <path d="M 1116 272 C 1138 272, 1152 258, 1152 236" class="corner-stitch"/>
  <path d="M 1098 272 C 1128 272, 1144 252, 1144 222" class="corner-stitch"/>
  <g transform="translate(84 58)">
    <rect width="16" height="8" rx="2" class="airmail-red"/>
    <rect x="20" width="16" height="8" rx="2" class="airmail-blue"/>
    <rect x="40" width="16" height="8" rx="2" class="airmail-red"/>
    <rect x="60" width="16" height="8" rx="2" class="airmail-blue"/>
    <rect x="80" width="16" height="8" rx="2" class="airmail-red"/>
    <rect x="100" width="16" height="8" rx="2" class="airmail-blue"/>
  </g>
  <g transform="translate(966 294)">
    <rect width="16" height="8" rx="2" class="airmail-blue"/>
    <rect x="20" width="16" height="8" rx="2" class="airmail-red"/>
    <rect x="40" width="16" height="8" rx="2" class="airmail-blue"/>
    <rect x="60" width="16" height="8" rx="2" class="airmail-red"/>
    <rect x="80" width="16" height="8" rx="2" class="airmail-blue"/>
    <rect x="100" width="16" height="8" rx="2" class="airmail-red"/>
  </g>
  <g transform="translate(980 258) rotate(8)">
    <circle cx="0" cy="0" r="35" class="coffee-ring"/>
    <path d="M -19 -28 C -3 -35, 17 -32, 28 -17 C 36 -6, 36 14, 24 28" class="coffee-ring"/>
    <ellipse cx="28" cy="22" rx="7" ry="4" class="coffee-drop"/>
  </g>
  <g transform="translate(1012 276) rotate(-6)">
    <path d="M 0 0 C 6 -8, 14 -8, 18 0 C 22 9, 14 18, 6 14 C 1 11, 0 5, 4 2" class="signature"/>
    <path d="M 24 -4 C 24 10, 30 18, 38 18 C 44 18, 48 14, 48 8 C 48 0, 42 -2, 36 1 C 31 4, 29 11, 31 18" class="signature"/>
    <path d="M 56 14 C 65 20, 76 20, 88 14" class="signature"/>
    <circle cx="92" cy="12" r="2.4" class="signature-dot"/>
  </g>
  <g class="orbit-spin">
    <ellipse cx="182" cy="110" rx="72" ry="28" class="orbit"/>
    <circle cx="254" cy="110" r="5" class="planet"/>
  </g>
  <g transform="translate(446 102) rotate(8)">
    <path d="M 0 -14 L 0 14 M -14 0 L 14 0 M -10 -10 L 10 10 M 10 -10 L -10 10" class="doodle-star"/>
    <path d="M 0 -6 L 4 0 L 0 6 L -4 0 Z" class="doodle-star-fill"/>
    <circle cx="17" cy="-8" r="2.6" class="doodle-star-dot"/>
    <circle cx="-13" cy="12" r="2.2" class="doodle-star-dot"/>
  </g>
  <g transform="translate(710 112) rotate(-6)">
    <path d="M -36 0 H -16 M 16 0 H 36 M 0 -32 V -16 M 0 16 V 32" class="city-road"/>
    <circle r="16" class="city-road"/>
    <path d="M -36 0 H -16 M 16 0 H 36 M 0 -32 V -16 M 0 16 V 32" class="city-lane"/>
    <circle r="16" class="city-lane"/>
    <circle r="8" class="city-island"/>
    <rect x="-31" y="-25" width="8" height="8" rx="2" class="city-zone" fill="#79c0ff"/>
    <rect x="23" y="18" width="8" height="8" rx="2" class="city-zone" fill="#f6e58d"/>
    <rect x="20" y="-27" width="7" height="7" rx="2" class="city-zone" fill="#ff7b72"/>
  </g>
  <g transform="translate(508 92) rotate(-6)">
    <path d="M 16 0 C 14 18, 14 30, 20 40" class="mini-tag-string"/>
    <g transform="translate(10 18) rotate(-12)">
      <circle cx="0" cy="0" r="4.5" class="mini-tag-charm-ring"/>
      <path d="M 0 -8 L 2.3 -2.4 L 8.4 -2.1 L 3.6 1.8 L 5.2 7.7 L 0 4.5 L -5.2 7.7 L -3.6 1.8 L -8.4 -2.1 L -2.3 -2.4 Z" class="mini-tag-charm-star"/>
      <circle cx="8.8" cy="-5.8" r="1.6" class="mini-tag-charm-dot"/>
    </g>
    <path d="M 20 40 L 136 40 L 150 60 L 136 80 L 20 80 Q 8 80 8 60 Q 8 40 20 40 Z" class="mini-tag"/>
    <circle cx="24" cy="60" r="5.5" class="mini-tag-eyelet"/>
    <circle cx="24" cy="60" r="2.2" class="bg"/>
    <circle cx="44" cy="54" r="4" class="mini-tag-accent"/>
    <path d="M 38 60 H 130" class="mini-tag-stitch"/>
    <text x="54" y="52" class="mini-tag-kicker">current note</text>
    <text x="54" y="68" class="mini-tag-text">ts tinkering</text>
  </g>
  <g class="float">
    <rect x="930" y="82" width="132" height="132" rx="18" class="stamp-card"/>
    <circle cx="944" cy="96" r="4" class="stamp-hole"/><circle cx="960" cy="96" r="4" class="stamp-hole"/><circle cx="976" cy="96" r="4" class="stamp-hole"/><circle cx="992" cy="96" r="4" class="stamp-hole"/><circle cx="1008" cy="96" r="4" class="stamp-hole"/><circle cx="1024" cy="96" r="4" class="stamp-hole"/><circle cx="1040" cy="96" r="4" class="stamp-hole"/>
    <circle cx="944" cy="200" r="4" class="stamp-hole"/><circle cx="960" cy="200" r="4" class="stamp-hole"/><circle cx="976" cy="200" r="4" class="stamp-hole"/><circle cx="992" cy="200" r="4" class="stamp-hole"/><circle cx="1008" cy="200" r="4" class="stamp-hole"/><circle cx="1024" cy="200" r="4" class="stamp-hole"/><circle cx="1040" cy="200" r="4" class="stamp-hole"/>
    <circle cx="944" cy="112" r="4" class="stamp-hole"/><circle cx="944" cy="128" r="4" class="stamp-hole"/><circle cx="944" cy="144" r="4" class="stamp-hole"/><circle cx="944" cy="160" r="4" class="stamp-hole"/><circle cx="944" cy="176" r="4" class="stamp-hole"/><circle cx="944" cy="192" r="4" class="stamp-hole"/>
    <circle cx="1048" cy="112" r="4" class="stamp-hole"/><circle cx="1048" cy="128" r="4" class="stamp-hole"/><circle cx="1048" cy="144" r="4" class="stamp-hole"/><circle cx="1048" cy="160" r="4" class="stamp-hole"/><circle cx="1048" cy="176" r="4" class="stamp-hole"/><circle cx="1048" cy="192" r="4" class="stamp-hole"/>
    <text x="956" y="118" class="stamp-title">BY HAND</text>
    <text x="1038" y="118" class="stamp-value">01c</text>
    <path d="M 1014 124 H 1038 V 148" class="stamp-corner-line"/>
    <path d="M 956 128 H 1038" class="stamp-line"/>
    <path d="M 960 168 C 974 148, 990 156, 1002 168 S 1028 188, 1038 160" class="stamp-wave"/>
    <circle cx="972" cy="150" r="5" class="green"/>
    <circle cx="995" cy="182" r="5" class="blue"/>
    <circle cx="1024" cy="146" r="5" class="yellow"/>
    <circle cx="1032" cy="184" r="7" class="pink blink"/>
  </g>
  <g transform="translate(860 106) rotate(-10)">
    <circle cx="0" cy="0" r="32" class="postmark-ring"/>
    <circle cx="0" cy="0" r="21" class="postmark-ring"/>
    <path d="M -17 -6 C -7 -14, 6 -14, 16 -6" class="postmark-slice"/>
    <path d="M -15 8 C -5 16, 7 16, 17 8" class="postmark-slice"/>
    <text x="-11" y="-2" class="postmark-date">JUL</text>
    <text x="-7" y="12" class="postmark-text">26</text>
  </g>
  <g transform="translate(896 118) rotate(-10)">
    <path d="M 0 0 C 22 -6, 46 -4, 70 2" class="cancel-line"/>
    <path d="M 2 14 C 26 8, 52 10, 78 16" class="cancel-line"/>
    <path d="M 6 28 C 32 24, 58 26, 84 32" class="cancel-line"/>
  </g>
  <path d="M 742 88 C 786 66, 838 64, 884 86 S 972 126, 1030 100" class="plane-path"/>
  <g class="plane-group" transform="translate(1024 98) rotate(6)">
    <path d="M 0 0 L 24 8 L 0 16 L 6 8 Z" class="plane"/>
    <path d="M 6 8 L 24 8" class="plane-path"/>
  </g>
  <text x="92" y="132" class="tiny">hello, i'm</text>
  <rect x="208" y="116" width="12" height="18" rx="2.5" class="cursor blink"/>
  <text x="90" y="202" class="name">David Vuy</text>
  <path d="M 94 214 C 164 232, 255 230, 356 214 C 388 209, 408 207, 430 214" class="scribble"/>
  <text x="94" y="248" class="line">I make apps, playful interfaces, and useful experiments.</text>
  <text x="94" y="286" class="tiny">recent bits</text>
  <g transform="translate(94 268)"><rect width="112" height="32" rx="16" class="pill"/><circle cx="16" cy="16" r="4" fill="#3178c6"/><text x="30" y="21" class="pill-text">care os</text><path d="M 32 25 H 92" class="pill-thread" stroke="#3178c6"/><circle cx="98" cy="25" r="2.4" fill="#3178c6" opacity=".9"/></g><g transform="translate(218 268)"><rect width="185" height="32" rx="16" class="pill"/><circle cx="16" cy="16" r="4" fill="#f1e05a"/><text x="30" y="21" class="pill-text">mortydex explorer</text><path d="M 32 25 H 165" class="pill-thread" stroke="#f1e05a"/><circle cx="171" cy="25" r="2.4" fill="#f1e05a" opacity=".9"/></g>
  <path d="M 760 172 C 790 158, 820 154, 850 160" class="wire"/>
  <path d="M 762 188 C 792 202, 822 206, 850 198" class="wire"/>
  <g transform="translate(752 180) rotate(-12)">
    <path d="M 0 0 C 10 14, 20 26, 31 38" class="button-thread"/>
    <g transform="translate(31 38)">
      <circle cx="0" cy="0" r="13" class="button"/>
      <circle cx="0" cy="0" r="9" class="button-ring"/>
      <circle cx="-4" cy="-4" r="1.7" class="button-hole"/>
      <circle cx="4" cy="-4" r="1.7" class="button-hole"/>
      <circle cx="-4" cy="4" r="1.7" class="button-hole"/>
      <circle cx="4" cy="4" r="1.7" class="button-hole"/>
      <path d="M -4 -4 L 4 4 M 4 -4 L -4 4" class="button-stitch"/>
    </g>
  </g>
  <g transform="rotate(-7 848 244)">
    <rect x="796" y="218" width="118" height="68" rx="8" class="note-shadow"/>
    <rect x="792" y="214" width="118" height="68" rx="8" class="note"/>
    <path d="M 886 214 H 902 Q 910 214 910 222 V 238 Z" class="note-fold"/>
    <path d="M 886 214 L 910 238" class="note-crease"/>
    <path d="M 804 246 H 898" class="note-rule"/>
    <path d="M 804 266 H 892" class="note-rule"/>
    <rect x="832" y="208" width="26" height="12" rx="4" fill="#3178c6" opacity=".92"/>
    <text x="845.0" y="217" class="note-chip-text">TS</text>
    <g transform="translate(804 208) rotate(-9)">
      <rect width="24" height="10" rx="3" class="tape"/>
      <path d="M 5 2.5 H 19 M 5 5 H 19 M 5 7.5 H 19" class="tape-stripe"/>
    </g>
    <g transform="translate(878 210) rotate(11)">
      <rect width="22" height="10" rx="3" class="tape"/>
      <path d="M 4 2.5 H 18 M 4 5 H 18 M 4 7.5 H 18" class="tape-stripe"/>
    </g>
    <g transform="translate(900 208) rotate(26)">
      <path d="M 0 0 C 8 -6, 18 -4, 20 5 C 22 13, 15 21, 7 18 C 1 16, 1 8, 7 6 C 11 5, 14 8, 13 12" class="paperclip"/>
    </g>
    <g transform="translate(890 270) rotate(10)">
      <path d="M 0 8 C 0 2, 5 -2, 11 -2 C 14 -6, 20 -6, 23 -2 C 29 -2, 34 2, 34 8 C 38 12, 37 19, 32 22 C 31 28, 25 31, 20 29 C 15 32, 8 31, 5 26 C 0 24, -2 16, 0 8 Z" class="seal"/>
      <path d="M 12 4 C 18 6, 23 10, 26 16 C 22 14, 17 14, 12 16 C 14 12, 14 8, 12 4 Z" class="seal-fold"/>
      <circle cx="18" cy="17" r="2.3" class="seal-dot"/>
    </g>
    <text x="808" y="242" class="note-text">lately</text>
    <text x="808" y="262" class="note-text">care os</text>
  </g>
  <circle cx="894" cy="90" r="3.5" class="spark blink"/>
  <circle cx="918" cy="72" r="2.8" class="spark"/>
  <circle cx="934" cy="98" r="2.4" class="spark blink"/>
  <circle cx="856" cy="110" r="5" class="green blink"/>
  <circle cx="882" cy="136" r="5" class="blue blink"/>
  <circle cx="838" cy="164" r="5" class="yellow blink"/>
</svg>
