<svg xmlns="http://www.w3.org/2000/svg" width="1200" height="236" viewBox="0 0 1200 236" role="img" aria-label="Recent work">
  <style>
    :root { color-scheme: dark; }
    .bg { fill: #08090d; }
    .grid { stroke: #1f2937; opacity: .45; }
    .title { font: 800 34px ui-monospace, SFMono-Regular, Menlo, Consolas, monospace; fill: #f8fafc; }
    .sub { font: 600 15px ui-monospace, SFMono-Regular, Menlo, Consolas, monospace; fill: #94a3b8; }
    .repo { font: 750 18px ui-monospace, SFMono-Regular, Menlo, Consolas, monospace; fill: #e5e7eb; }
    .meta { font: 600 13px ui-monospace, SFMono-Regular, Menlo, Consolas, monospace; fill: #94a3b8; }
    .card-bg { fill: #10141c; stroke: #253044; }
    .card { animation: lift 4s ease-in-out infinite; }
    @keyframes lift { 0%, 100% { transform: translateY(0); } 50% { transform: translateY(-4px); } }
    @media (prefers-reduced-motion: reduce) { * { animation: none !important; } }
  </style>
  <rect class="bg" width="1200" height="236"/>
  <line class="grid" x1="42" y1="0" x2="42" y2="236"/><line class="grid" x1="84" y1="0" x2="84" y2="236"/><line class="grid" x1="126" y1="0" x2="126" y2="236"/><line class="grid" x1="168" y1="0" x2="168" y2="236"/><line class="grid" x1="210" y1="0" x2="210" y2="236"/><line class="grid" x1="252" y1="0" x2="252" y2="236"/><line class="grid" x1="294" y1="0" x2="294" y2="236"/><line class="grid" x1="336" y1="0" x2="336" y2="236"/><line class="grid" x1="378" y1="0" x2="378" y2="236"/><line class="grid" x1="420" y1="0" x2="420" y2="236"/><line class="grid" x1="462" y1="0" x2="462" y2="236"/><line class="grid" x1="504" y1="0" x2="504" y2="236"/><line class="grid" x1="546" y1="0" x2="546" y2="236"/><line class="grid" x1="588" y1="0" x2="588" y2="236"/><line class="grid" x1="630" y1="0" x2="630" y2="236"/><line class="grid" x1="672" y1="0" x2="672" y2="236"/><line class="grid" x1="714" y1="0" x2="714" y2="236"/><line class="grid" x1="756" y1="0" x2="756" y2="236"/><line class="grid" x1="798" y1="0" x2="798" y2="236"/><line class="grid" x1="840" y1="0" x2="840" y2="236"/><line class="grid" x1="882" y1="0" x2="882" y2="236"/><line class="grid" x1="924" y1="0" x2="924" y2="236"/><line class="grid" x1="966" y1="0" x2="966" y2="236"/><line class="grid" x1="1008" y1="0" x2="1008" y2="236"/><line class="grid" x1="1050" y1="0" x2="1050" y2="236"/><line class="grid" x1="1092" y1="0" x2="1092" y2="236"/><line class="grid" x1="1134" y1="0" x2="1134" y2="236"/><line class="grid" x1="1176" y1="0" x2="1176" y2="236"/>
  <line class="grid" x1="0" y1="34" x2="1200" y2="34"/><line class="grid" x1="0" y1="68" x2="1200" y2="68"/><line class="grid" x1="0" y1="102" x2="1200" y2="102"/><line class="grid" x1="0" y1="136" x2="1200" y2="136"/><line class="grid" x1="0" y1="170" x2="1200" y2="170"/><line class="grid" x1="0" y1="204" x2="1200" y2="204"/>
  <text x="54" y="58" class="title">Recent Work</text>
  <text x="54" y="86" class="sub">A few public repos from this GitHub account.</text>
  <g class="card" style="animation-delay:-0.0s"><rect x="54" y="102" width="332" height="88" rx="8" class="card-bg"/><rect x="54" y="102" width="5" height="88" fill="#7fbf90"/><text x="76" y="133" class="repo">davidvuy</text><text x="76" y="160" class="meta">Python / stars 0 / issues 0</text><rect x="268" y="164" width="86" height="6" fill="#1f2937"/><rect x="268" y="164" width="63.6" height="6" fill="#7fbf90"/></g><g class="card" style="animation-delay:-0.35s"><rect x="426" y="102" width="332" height="88" rx="8" class="card-bg"/><rect x="426" y="102" width="5" height="88" fill="#8ab4f8"/><text x="448" y="133" class="repo">app-care-os</text><text x="448" y="160" class="meta">TypeScript / stars 0 / issues 0</text><rect x="640" y="164" width="86" height="6" fill="#1f2937"/><rect x="640" y="164" width="63.6" height="6" fill="#8ab4f8"/></g><g class="card" style="animation-delay:-0.7s"><rect x="798" y="102" width="332" height="88" rx="8" class="card-bg"/><rect x="798" y="102" width="5" height="88" fill="#d8b35a"/><text x="820" y="133" class="repo">mortydex-explorer-restart</text><text x="820" y="160" class="meta">JavaScript / stars 0 / issues 0</text><rect x="1012" y="164" width="86" height="6" fill="#1f2937"/><rect x="1012" y="164" width="63.6" height="6" fill="#d8b35a"/></g>
</svg>
