<svg xmlns="http://www.w3.org/2000/svg" width="1200" height="290" viewBox="0 0 1200 290" role="img" aria-label="Builder skill map">
  <style>
    :root { color-scheme: dark; }
    .bg { fill: #08090d; }
    .title { font: 800 34px ui-monospace, SFMono-Regular, Menlo, Consolas, monospace; fill: #f8fafc; }
    .sub { font: 600 15px ui-monospace, SFMono-Regular, Menlo, Consolas, monospace; fill: #94a3b8; }
    .label { font: 750 18px ui-monospace, SFMono-Regular, Menlo, Consolas, monospace; fill: #e5e7eb; }
    .score { font: 800 20px ui-monospace, SFMono-Regular, Menlo, Consolas, monospace; fill: #f8fafc; }
    .track { fill: #111827; stroke: #253044; }
    .fill { animation: breathe 3.2s ease-in-out infinite; transform-origin: left; }
    @keyframes breathe { 0%, 100% { opacity: .68; } 50% { opacity: 1; } }
    @media (prefers-reduced-motion: reduce) { * { animation: none !important; } }
  </style>
  <rect class="bg" width="1200" height="290"/>
  <rect x="34" y="30" width="1132" height="230" rx="8" fill="#10141c" stroke="#253044"/>
  <text x="72" y="76" class="title">Builder Skill Map</text>
  <text x="72" y="102" class="sub">Current language signal: Python / TypeScript / JavaScript</text>
  <text x="72" y="112" class="label">Prototype</text><rect x="232" y="94" width="820" height="16" rx="8" class="track"/><rect x="232" y="94" width="754.4" height="16" rx="8" fill="#2dd4bf" class="fill"/><text x="1080" y="112" text-anchor="end" class="score">92</text><text x="72" y="158" class="label">Automate</text><rect x="232" y="140" width="820" height="16" rx="8" class="track"/><rect x="232" y="140" width="705.2" height="16" rx="8" fill="#f59e0b" class="fill"/><text x="1080" y="158" text-anchor="end" class="score">86</text><text x="72" y="204" class="label">Interface</text><rect x="232" y="186" width="820" height="16" rx="8" class="track"/><rect x="232" y="186" width="639.6" height="16" rx="8" fill="#38bdf8" class="fill"/><text x="1080" y="204" text-anchor="end" class="score">78</text><text x="72" y="250" class="label">Launch</text><rect x="232" y="232" width="820" height="16" rx="8" class="track"/><rect x="232" y="232" width="590.4" height="16" rx="8" fill="#fb7185" class="fill"/><text x="1080" y="250" text-anchor="end" class="score">72</text>
</svg>
