<svg xmlns="http://www.w3.org/2000/svg" width="1200" height="260" viewBox="0 0 1200 260" role="img" aria-label="Contribution trail">
  <style>
    :root { color-scheme: dark; }
    .bg { fill: #0d1117; }
    .title { font: 800 28px ui-monospace, SFMono-Regular, Menlo, Consolas, monospace; fill: #f0f6fc; }
    .sub { font: 650 14px ui-monospace, SFMono-Regular, Menlo, Consolas, monospace; fill: #8b949e; }
    .month { font: 650 12px ui-monospace, SFMono-Regular, Menlo, Consolas, monospace; fill: #6e7681; }
    .trail { stroke: #7ee787; stroke-width: 4; stroke-linecap: round; stroke-linejoin: round; opacity: .58; stroke-dasharray: 3 9; }
    .lead-thread { fill: none; stroke: #ff7b72; stroke-width: 2.4; stroke-linecap: round; opacity: .72; stroke-dasharray: 2 8; }
    .stitch { stroke: #79c0ff; stroke-width: 1.7; stroke-linecap: round; opacity: .9; }
    .thread { stroke: #ff7b72; stroke-width: 3.2; stroke-linecap: round; }
    .shaft { stroke: #c9d1d9; stroke-width: 3.2; stroke-linecap: round; }
    .eye { fill: none; stroke: #f0f6fc; stroke-width: 2; }
    .eye-hole { fill: #f0f6fc; }
    .spool-wood { fill: #d29922; stroke: #8b949e; stroke-width: 1.2; }
    .spool-core { fill: #0d1117; opacity: .8; }
    .spool-pin { fill: #f6e58d; opacity: .9; }
    .spool-wrap { fill: none; stroke: #ff7b72; stroke-width: 2; stroke-linecap: round; opacity: .9; }
    .spool { animation: bob 6s ease-in-out infinite; transform-origin: 14px 18px; }
    .needle { animation: hop 1.9s ease-in-out infinite; }
    .tag { fill: #111827; stroke: #30363d; stroke-width: 1.2; }
    .tag-text { font: 700 13px ui-monospace, SFMono-Regular, Menlo, Consolas, monospace; fill: #f0f6fc; }
    .tag-accent { fill: #7ee787; }
    .tag-stitch { fill: none; stroke: #8b949e; stroke-width: 1.2; stroke-linecap: round; stroke-dasharray: 1.5 5; opacity: .9; }
    @keyframes bob { 0%, 100% { transform: rotate(0deg) translateY(0); } 50% { transform: rotate(-6deg) translateY(-2px); } }
    @keyframes hop { 0%, 100% { transform: translateY(0); } 50% { transform: translateY(-5px); } }
    @media (prefers-reduced-motion: reduce) { * { animation: none !important; } }
  </style>
  <rect class="bg" width="1200" height="260"/>
  <text x="74" y="48" class="title">contribution trail</text>
  <text x="74" y="72" class="sub">356 contributions this year. A tiny needle threads through the latest active days.</text>
  <g transform="translate(980 34)">
    <rect width="146" height="34" rx="17" class="tag"/>
    <path d="M 14 17 H 132" class="tag-stitch"/>
    <circle cx="22" cy="17" r="4" class="tag-accent"/>
    <text x="34" y="22" class="tag-text">small spark lately</text>
  </g>
  <text x="74" y="90" class="month">jul</text><text x="125" y="90" class="month">aug</text><text x="210" y="90" class="month">sep</text><text x="278" y="90" class="month">oct</text><text x="346" y="90" class="month">nov</text><text x="431" y="90" class="month">dec</text><text x="499" y="90" class="month">jan</text><text x="584" y="90" class="month">feb</text><text x="652" y="90" class="month">mar</text><text x="720" y="90" class="month">apr</text><text x="788" y="90" class="month">may</text><text x="873" y="90" class="month">jun</text><text x="941" y="90" class="month">jul</text>
  <rect x="74" y="104" width="13" height="13" rx="3" fill="#161b22"/><rect x="74" y="121" width="13" height="13" rx="3" fill="#161b22"/><rect x="74" y="138" width="13" height="13" rx="3" fill="#161b22"/><rect x="74" y="155" width="13" height="13" rx="3" fill="#161b22"/><rect x="74" y="172" width="13" height="13" rx="3" fill="#161b22"/><rect x="74" y="189" width="13" height="13" rx="3" fill="#161b22"/><rect x="74" y="206" width="13" height="13" rx="3" fill="#161b22"/><rect x="91" y="104" width="13" height="13" rx="3" fill="#161b22"/><rect x="91" y="121" width="13" height="13" rx="3" fill="#161b22"/><rect x="91" y="138" width="13" height="13" rx="3" fill="#161b22"/><rect x="91" y="155" width="13" height="13" rx="3" fill="#161b22"/><rect x="91" y="172" width="13" height="13" rx="3" fill="#161b22"/><rect x="91" y="189" width="13" height="13" rx="3" fill="#161b22"/><rect x="91" y="206" width="13" height="13" rx="3" fill="#161b22"/><rect x="108" y="104" width="13" height="13" rx="3" fill="#161b22"/><rect x="108" y="121" width="13" height="13" rx="3" fill="#161b22"/><rect x="108" y="138" width="13" height="13" rx="3" fill="#161b22"/><rect x="108" y="155" width="13" height="13" rx="3" fill="#161b22"/><rect x="108" y="172" width="13" height="13" rx="3" fill="#161b22"/><rect x="108" y="189" width="13" height="13" rx="3" fill="#161b22"/><rect x="108" y="206" width="13" height="13" rx="3" fill="#161b22"/><rect x="125" y="104" width="13" height="13" rx="3" fill="#161b22"/><rect x="125" y="121" width="13" height="13" rx="3" fill="#161b22"/><rect x="125" y="138" width="13" height="13" rx="3" fill="#161b22"/><rect x="125" y="155" width="13" height="13" rx="3" fill="#161b22"/><rect x="125" y="172" width="13" height="13" rx="3" fill="#161b22"/><rect x="125" y="189" width="13" height="13" rx="3" fill="#161b22"/><rect x="125" y="206" width="13" height="13" rx="3" fill="#161b22"/><rect x="142" y="104" width="13" height="13" rx="3" fill="#161b22"/><rect x="142" y="121" width="13" height="13" rx="3" fill="#161b22"/><rect x="142" y="138" width="13" height="13" rx="3" fill="#161b22"/><rect x="142" y="155" width="13" height="13" rx="3" fill="#161b22"/><rect x="142" y="172" width="13" height="13" rx="3" fill="#161b22"/><rect x="142" y="189" width="13" height="13" rx="3" fill="#161b22"/><rect x="142" y="206" width="13" height="13" rx="3" fill="#161b22"/><rect x="159" y="104" width="13" height="13" rx="3" fill="#161b22"/><rect x="159" y="121" width="13" height="13" rx="3" fill="#161b22"/><rect x="159" y="138" width="13" height="13" rx="3" fill="#161b22"/><rect x="159" y="155" width="13" height="13" rx="3" fill="#161b22"/><rect x="159" y="172" width="13" height="13" rx="3" fill="#161b22"/><rect x="159" y="189" width="13" height="13" rx="3" fill="#161b22"/><rect x="159" y="206" width="13" height="13" rx="3" fill="#161b22"/><rect x="176" y="104" width="13" height="13" rx="3" fill="#161b22"/><rect x="176" y="121" width="13" height="13" rx="3" fill="#161b22"/><rect x="176" y="138" width="13" height="13" rx="3" fill="#161b22"/><rect x="176" y="155" width="13" height="13" rx="3" fill="#161b22"/><rect x="176" y="172" width="13" height="13" rx="3" fill="#161b22"/><rect x="176" y="189" width="13" height="13" rx="3" fill="#161b22"/><rect x="176" y="206" width="13" height="13" rx="3" fill="#161b22"/><rect x="193" y="104" width="13" height="13" rx="3" fill="#161b22"/><rect x="193" y="121" width="13" height="13" rx="3" fill="#161b22"/><rect x="193" y="138" width="13" height="13" rx="3" fill="#161b22"/><rect x="193" y="155" width="13" height="13" rx="3" fill="#161b22"/><rect x="193" y="172" width="13" height="13" rx="3" fill="#161b22"/><rect x="193" y="189" width="13" height="13" rx="3" fill="#161b22"/><rect x="193" y="206" width="13" height="13" rx="3" fill="#161b22"/><rect x="210" y="104" width="13" height="13" rx="3" fill="#161b22"/><rect x="210" y="121" width="13" height="13" rx="3" fill="#161b22"/><rect x="210" y="138" width="13" height="13" rx="3" fill="#161b22"/><rect x="210" y="155" width="13" height="13" rx="3" fill="#161b22"/><rect x="210" y="172" width="13" height="13" rx="3" fill="#161b22"/><rect x="210" y="189" width="13" height="13" rx="3" fill="#161b22"/><rect x="210" y="206" width="13" height="13" rx="3" fill="#161b22"/><rect x="227" y="104" width="13" height="13" rx="3" fill="#161b22"/><rect x="227" y="121" width="13" height="13" rx="3" fill="#161b22"/><rect x="227" y="138" width="13" height="13" rx="3" fill="#161b22"/><rect x="227" y="155" width="13" height="13" rx="3" fill="#161b22"/><rect x="227" y="172" width="13" height="13" rx="3" fill="#161b22"/><rect x="227" y="189" width="13" height="13" rx="3" fill="#161b22"/><rect x="227" y="206" width="13" height="13" rx="3" fill="#161b22"/><rect x="244" y="104" width="13" height="13" rx="3" fill="#161b22"/><rect x="244" y="121" width="13" height="13" rx="3" fill="#161b22"/><rect x="244" y="138" width="13" height="13" rx="3" fill="#161b22"/><rect x="244" y="155" width="13" height="13" rx="3" fill="#161b22"/><rect x="244" y="172" width="13" height="13" rx="3" fill="#161b22"/><rect x="244" y="189" width="13" height="13" rx="3" fill="#161b22"/><rect x="244" y="206" width="13" height="13" rx="3" fill="#161b22"/><rect x="261" y="104" width="13" height="13" rx="3" fill="#161b22"/><rect x="261" y="121" width="13" height="13" rx="3" fill="#161b22"/><rect x="261" y="138" width="13" height="13" rx="3" fill="#173b25"/><rect x="261" y="155" width="13" height="13" rx="3" fill="#161b22"/><rect x="261" y="172" width="13" height="13" rx="3" fill="#161b22"/><rect x="261" y="189" width="13" height="13" rx="3" fill="#161b22"/><rect x="261" y="206" width="13" height="13" rx="3" fill="#161b22"/><rect x="278" y="104" width="13" height="13" rx="3" fill="#161b22"/><rect x="278" y="121" width="13" height="13" rx="3" fill="#161b22"/><rect x="278" y="138" width="13" height="13" rx="3" fill="#161b22"/><rect x="278" y="155" width="13" height="13" rx="3" fill="#161b22"/><rect x="278" y="172" width="13" height="13" rx="3" fill="#161b22"/><rect x="278" y="189" width="13" height="13" rx="3" fill="#161b22"/><rect x="278" y="206" width="13" height="13" rx="3" fill="#161b22"/><rect x="295" y="104" width="13" height="13" rx="3" fill="#161b22"/><rect x="295" y="121" width="13" height="13" rx="3" fill="#161b22"/><rect x="295" y="138" width="13" height="13" rx="3" fill="#161b22"/><rect x="295" y="155" width="13" height="13" rx="3" fill="#161b22"/><rect x="295" y="172" width="13" height="13" rx="3" fill="#161b22"/><rect x="295" y="189" width="13" height="13" rx="3" fill="#161b22"/><rect x="295" y="206" width="13" height="13" rx="3" fill="#161b22"/><rect x="312" y="104" width="13" height="13" rx="3" fill="#161b22"/><rect x="312" y="121" width="13" height="13" rx="3" fill="#161b22"/><rect x="312" y="138" width="13" height="13" rx="3" fill="#161b22"/><rect x="312" y="155" width="13" height="13" rx="3" fill="#161b22"/><rect x="312" y="172" width="13" height="13" rx="3" fill="#161b22"/><rect x="312" y="189" width="13" height="13" rx="3" fill="#161b22"/><rect x="312" y="206" width="13" height="13" rx="3" fill="#161b22"/><rect x="329" y="104" width="13" height="13" rx="3" fill="#161b22"/><rect x="329" y="121" width="13" height="13" rx="3" fill="#161b22"/><rect x="329" y="138" width="13" height="13" rx="3" fill="#161b22"/><rect x="329" y="155" width="13" height="13" rx="3" fill="#161b22"/><rect x="329" y="172" width="13" height="13" rx="3" fill="#161b22"/><rect x="329" y="189" width="13" height="13" rx="3" fill="#161b22"/><rect x="329" y="206" width="13" height="13" rx="3" fill="#161b22"/><rect x="346" y="104" width="13" height="13" rx="3" fill="#161b22"/><rect x="346" y="121" width="13" height="13" rx="3" fill="#161b22"/><rect x="346" y="138" width="13" height="13" rx="3" fill="#161b22"/><rect x="346" y="155" width="13" height="13" rx="3" fill="#161b22"/><rect x="346" y="172" width="13" height="13" rx="3" fill="#161b22"/><rect x="346" y="189" width="13" height="13" rx="3" fill="#161b22"/><rect x="346" y="206" width="13" height="13" rx="3" fill="#161b22"/><rect x="363" y="104" width="13" height="13" rx="3" fill="#161b22"/><rect x="363" y="121" width="13" height="13" rx="3" fill="#161b22"/><rect x="363" y="138" width="13" height="13" rx="3" fill="#161b22"/><rect x="363" y="155" width="13" height="13" rx="3" fill="#161b22"/><rect x="363" y="172" width="13" height="13" rx="3" fill="#161b22"/><rect x="363" y="189" width="13" height="13" rx="3" fill="#161b22"/><rect x="363" y="206" width="13" height="13" rx="3" fill="#161b22"/><rect x="380" y="104" width="13" height="13" rx="3" fill="#161b22"/><rect x="380" y="121" width="13" height="13" rx="3" fill="#161b22"/><rect x="380" y="138" width="13" height="13" rx="3" fill="#161b22"/><rect x="380" y="155" width="13" height="13" rx="3" fill="#161b22"/><rect x="380" y="172" width="13" height="13" rx="3" fill="#161b22"/><rect x="380" y="189" width="13" height="13" rx="3" fill="#161b22"/><rect x="380" y="206" width="13" height="13" rx="3" fill="#161b22"/><rect x="397" y="104" width="13" height="13" rx="3" fill="#161b22"/><rect x="397" y="121" width="13" height="13" rx="3" fill="#161b22"/><rect x="397" y="138" width="13" height="13" rx="3" fill="#161b22"/><rect x="397" y="155" width="13" height="13" rx="3" fill="#161b22"/><rect x="397" y="172" width="13" height="13" rx="3" fill="#161b22"/><rect x="397" y="189" width="13" height="13" rx="3" fill="#161b22"/><rect x="397" y="206" width="13" height="13" rx="3" fill="#161b22"/><rect x="414" y="104" width="13" height="13" rx="3" fill="#161b22"/><rect x="414" y="121" width="13" height="13" rx="3" fill="#161b22"/><rect x="414" y="138" width="13" height="13" rx="3" fill="#161b22"/><rect x="414" y="155" width="13" height="13" rx="3" fill="#161b22"/><rect x="414" y="172" width="13" height="13" rx="3" fill="#161b22"/><rect x="414" y="189" width="13" height="13" rx="3" fill="#161b22"/><rect x="414" y="206" width="13" height="13" rx="3" fill="#161b22"/><rect x="431" y="104" width="13" height="13" rx="3" fill="#161b22"/><rect x="431" y="121" width="13" height="13" rx="3" fill="#161b22"/><rect x="431" y="138" width="13" height="13" rx="3" fill="#161b22"/><rect x="431" y="155" width="13" height="13" rx="3" fill="#161b22"/><rect x="431" y="172" width="13" height="13" rx="3" fill="#161b22"/><rect x="431" y="189" width="13" height="13" rx="3" fill="#161b22"/><rect x="431" y="206" width="13" height="13" rx="3" fill="#161b22"/><rect x="448" y="104" width="13" height="13" rx="3" fill="#161b22"/><rect x="448" y="121" width="13" height="13" rx="3" fill="#161b22"/><rect x="448" y="138" width="13" height="13" rx="3" fill="#161b22"/><rect x="448" y="155" width="13" height="13" rx="3" fill="#161b22"/><rect x="448" y="172" width="13" height="13" rx="3" fill="#161b22"/><rect x="448" y="189" width="13" height="13" rx="3" fill="#161b22"/><rect x="448" y="206" width="13" height="13" rx="3" fill="#161b22"/><rect x="465" y="104" width="13" height="13" rx="3" fill="#161b22"/><rect x="465" y="121" width="13" height="13" rx="3" fill="#161b22"/><rect x="465" y="138" width="13" height="13" rx="3" fill="#161b22"/><rect x="465" y="155" width="13" height="13" rx="3" fill="#161b22"/><rect x="465" y="172" width="13" height="13" rx="3" fill="#161b22"/><rect x="465" y="189" width="13" height="13" rx="3" fill="#161b22"/><rect x="465" y="206" width="13" height="13" rx="3" fill="#161b22"/><rect x="482" y="104" width="13" height="13" rx="3" fill="#161b22"/><rect x="482" y="121" width="13" height="13" rx="3" fill="#161b22"/><rect x="482" y="138" width="13" height="13" rx="3" fill="#161b22"/><rect x="482" y="155" width="13" height="13" rx="3" fill="#161b22"/><rect x="482" y="172" width="13" height="13" rx="3" fill="#161b22"/><rect x="482" y="189" width="13" height="13" rx="3" fill="#161b22"/><rect x="482" y="206" width="13" height="13" rx="3" fill="#161b22"/><rect x="499" y="104" width="13" height="13" rx="3" fill="#161b22"/><rect x="499" y="121" width="13" height="13" rx="3" fill="#161b22"/><rect x="499" y="138" width="13" height="13" rx="3" fill="#161b22"/><rect x="499" y="155" width="13" height="13" rx="3" fill="#161b22"/><rect x="499" y="172" width="13" height="13" rx="3" fill="#161b22"/><rect x="499" y="189" width="13" height="13" rx="3" fill="#161b22"/><rect x="499" y="206" width="13" height="13" rx="3" fill="#161b22"/><rect x="516" y="104" width="13" height="13" rx="3" fill="#161b22"/><rect x="516" y="121" width="13" height="13" rx="3" fill="#161b22"/><rect x="516" y="138" width="13" height="13" rx="3" fill="#161b22"/><rect x="516" y="155" width="13" height="13" rx="3" fill="#161b22"/><rect x="516" y="172" width="13" height="13" rx="3" fill="#161b22"/><rect x="516" y="189" width="13" height="13" rx="3" fill="#161b22"/><rect x="516" y="206" width="13" height="13" rx="3" fill="#161b22"/><rect x="533" y="104" width="13" height="13" rx="3" fill="#161b22"/><rect x="533" y="121" width="13" height="13" rx="3" fill="#161b22"/><rect x="533" y="138" width="13" height="13" rx="3" fill="#161b22"/><rect x="533" y="155" width="13" height="13" rx="3" fill="#161b22"/><rect x="533" y="172" width="13" height="13" rx="3" fill="#161b22"/><rect x="533" y="189" width="13" height="13" rx="3" fill="#161b22"/><rect x="533" y="206" width="13" height="13" rx="3" fill="#161b22"/><rect x="550" y="104" width="13" height="13" rx="3" fill="#161b22"/><rect x="550" y="121" width="13" height="13" rx="3" fill="#161b22"/><rect x="550" y="138" width="13" height="13" rx="3" fill="#161b22"/><rect x="550" y="155" width="13" height="13" rx="3" fill="#161b22"/><rect x="550" y="172" width="13" height="13" rx="3" fill="#161b22"/><rect x="550" y="189" width="13" height="13" rx="3" fill="#161b22"/><rect x="550" y="206" width="13" height="13" rx="3" fill="#161b22"/><rect x="567" y="104" width="13" height="13" rx="3" fill="#161b22"/><rect x="567" y="121" width="13" height="13" rx="3" fill="#161b22"/><rect x="567" y="138" width="13" height="13" rx="3" fill="#161b22"/><rect x="567" y="155" width="13" height="13" rx="3" fill="#161b22"/><rect x="567" y="172" width="13" height="13" rx="3" fill="#161b22"/><rect x="567" y="189" width="13" height="13" rx="3" fill="#161b22"/><rect x="567" y="206" width="13" height="13" rx="3" fill="#161b22"/><rect x="584" y="104" width="13" height="13" rx="3" fill="#161b22"/><rect x="584" y="121" width="13" height="13" rx="3" fill="#161b22"/><rect x="584" y="138" width="13" height="13" rx="3" fill="#161b22"/><rect x="584" y="155" width="13" height="13" rx="3" fill="#161b22"/><rect x="584" y="172" width="13" height="13" rx="3" fill="#161b22"/><rect x="584" y="189" width="13" height="13" rx="3" fill="#161b22"/><rect x="584" y="206" width="13" height="13" rx="3" fill="#161b22"/><rect x="601" y="104" width="13" height="13" rx="3" fill="#161b22"/><rect x="601" y="121" width="13" height="13" rx="3" fill="#161b22"/><rect x="601" y="138" width="13" height="13" rx="3" fill="#161b22"/><rect x="601" y="155" width="13" height="13" rx="3" fill="#161b22"/><rect x="601" y="172" width="13" height="13" rx="3" fill="#161b22"/><rect x="601" y="189" width="13" height="13" rx="3" fill="#161b22"/><rect x="601" y="206" width="13" height="13" rx="3" fill="#161b22"/><rect x="618" y="104" width="13" height="13" rx="3" fill="#161b22"/><rect x="618" y="121" width="13" height="13" rx="3" fill="#161b22"/><rect x="618" y="138" width="13" height="13" rx="3" fill="#161b22"/><rect x="618" y="155" width="13" height="13" rx="3" fill="#161b22"/><rect x="618" y="172" width="13" height="13" rx="3" fill="#161b22"/><rect x="618" y="189" width="13" height="13" rx="3" fill="#161b22"/><rect x="618" y="206" width="13" height="13" rx="3" fill="#161b22"/><rect x="635" y="104" width="13" height="13" rx="3" fill="#161b22"/><rect x="635" y="121" width="13" height="13" rx="3" fill="#161b22"/><rect x="635" y="138" width="13" height="13" rx="3" fill="#161b22"/><rect x="635" y="155" width="13" height="13" rx="3" fill="#161b22"/><rect x="635" y="172" width="13" height="13" rx="3" fill="#161b22"/><rect x="635" y="189" width="13" height="13" rx="3" fill="#161b22"/><rect x="635" y="206" width="13" height="13" rx="3" fill="#161b22"/><rect x="652" y="104" width="13" height="13" rx="3" fill="#161b22"/><rect x="652" y="121" width="13" height="13" rx="3" fill="#161b22"/><rect x="652" y="138" width="13" height="13" rx="3" fill="#161b22"/><rect x="652" y="155" width="13" height="13" rx="3" fill="#161b22"/><rect x="652" y="172" width="13" height="13" rx="3" fill="#161b22"/><rect x="652" y="189" width="13" height="13" rx="3" fill="#161b22"/><rect x="652" y="206" width="13" height="13" rx="3" fill="#161b22"/><rect x="669" y="104" width="13" height="13" rx="3" fill="#161b22"/><rect x="669" y="121" width="13" height="13" rx="3" fill="#161b22"/><rect x="669" y="138" width="13" height="13" rx="3" fill="#161b22"/><rect x="669" y="155" width="13" height="13" rx="3" fill="#161b22"/><rect x="669" y="172" width="13" height="13" rx="3" fill="#161b22"/><rect x="669" y="189" width="13" height="13" rx="3" fill="#161b22"/><rect x="669" y="206" width="13" height="13" rx="3" fill="#161b22"/><rect x="686" y="104" width="13" height="13" rx="3" fill="#161b22"/><rect x="686" y="121" width="13" height="13" rx="3" fill="#161b22"/><rect x="686" y="138" width="13" height="13" rx="3" fill="#161b22"/><rect x="686" y="155" width="13" height="13" rx="3" fill="#161b22"/><rect x="686" y="172" width="13" height="13" rx="3" fill="#161b22"/><rect x="686" y="189" width="13" height="13" rx="3" fill="#161b22"/><rect x="686" y="206" width="13" height="13" rx="3" fill="#161b22"/><rect x="703" y="104" width="13" height="13" rx="3" fill="#161b22"/><rect x="703" y="121" width="13" height="13" rx="3" fill="#161b22"/><rect x="703" y="138" width="13" height="13" rx="3" fill="#161b22"/><rect x="703" y="155" width="13" height="13" rx="3" fill="#161b22"/><rect x="703" y="172" width="13" height="13" rx="3" fill="#161b22"/><rect x="703" y="189" width="13" height="13" rx="3" fill="#161b22"/><rect x="703" y="206" width="13" height="13" rx="3" fill="#161b22"/><rect x="720" y="104" width="13" height="13" rx="3" fill="#161b22"/><rect x="720" y="121" width="13" height="13" rx="3" fill="#161b22"/><rect x="720" y="138" width="13" height="13" rx="3" fill="#161b22"/><rect x="720" y="155" width="13" height="13" rx="3" fill="#161b22"/><rect x="720" y="172" width="13" height="13" rx="3" fill="#161b22"/><rect x="720" y="189" width="13" height="13" rx="3" fill="#161b22"/><rect x="720" y="206" width="13" height="13" rx="3" fill="#161b22"/><rect x="737" y="104" width="13" height="13" rx="3" fill="#161b22"/><rect x="737" y="121" width="13" height="13" rx="3" fill="#161b22"/><rect x="737" y="138" width="13" height="13" rx="3" fill="#161b22"/><rect x="737" y="155" width="13" height="13" rx="3" fill="#161b22"/><rect x="737" y="172" width="13" height="13" rx="3" fill="#161b22"/><rect x="737" y="189" width="13" height="13" rx="3" fill="#161b22"/><rect x="737" y="206" width="13" height="13" rx="3" fill="#161b22"/><rect x="754" y="104" width="13" height="13" rx="3" fill="#161b22"/><rect x="754" y="121" width="13" height="13" rx="3" fill="#161b22"/><rect x="754" y="138" width="13" height="13" rx="3" fill="#161b22"/><rect x="754" y="155" width="13" height="13" rx="3" fill="#161b22"/><rect x="754" y="172" width="13" height="13" rx="3" fill="#161b22"/><rect x="754" y="189" width="13" height="13" rx="3" fill="#161b22"/><rect x="754" y="206" width="13" height="13" rx="3" fill="#161b22"/><rect x="771" y="104" width="13" height="13" rx="3" fill="#161b22"/><rect x="771" y="121" width="13" height="13" rx="3" fill="#161b22"/><rect x="771" y="138" width="13" height="13" rx="3" fill="#161b22"/><rect x="771" y="155" width="13" height="13" rx="3" fill="#161b22"/><rect x="771" y="172" width="13" height="13" rx="3" fill="#161b22"/><rect x="771" y="189" width="13" height="13" rx="3" fill="#161b22"/><rect x="771" y="206" width="13" height="13" rx="3" fill="#161b22"/><rect x="788" y="104" width="13" height="13" rx="3" fill="#161b22"/><rect x="788" y="121" width="13" height="13" rx="3" fill="#161b22"/><rect x="788" y="138" width="13" height="13" rx="3" fill="#173b25"/><rect x="788" y="155" width="13" height="13" rx="3" fill="#161b22"/><rect x="788" y="172" width="13" height="13" rx="3" fill="#161b22"/><rect x="788" y="189" width="13" height="13" rx="3" fill="#161b22"/><rect x="788" y="206" width="13" height="13" rx="3" fill="#161b22"/><rect x="805" y="104" width="13" height="13" rx="3" fill="#161b22"/><rect x="805" y="121" width="13" height="13" rx="3" fill="#161b22"/><rect x="805" y="138" width="13" height="13" rx="3" fill="#161b22"/><rect x="805" y="155" width="13" height="13" rx="3" fill="#161b22"/><rect x="805" y="172" width="13" height="13" rx="3" fill="#161b22"/><rect x="805" y="189" width="13" height="13" rx="3" fill="#161b22"/><rect x="805" y="206" width="13" height="13" rx="3" fill="#161b22"/><rect x="822" y="104" width="13" height="13" rx="3" fill="#161b22"/><rect x="822" y="121" width="13" height="13" rx="3" fill="#161b22"/><rect x="822" y="138" width="13" height="13" rx="3" fill="#161b22"/><rect x="822" y="155" width="13" height="13" rx="3" fill="#161b22"/><rect x="822" y="172" width="13" height="13" rx="3" fill="#173b25"/><rect x="822" y="189" width="13" height="13" rx="3" fill="#173b25"/><rect x="822" y="206" width="13" height="13" rx="3" fill="#161b22"/><rect x="839" y="104" width="13" height="13" rx="3" fill="#161b22"/><rect x="839" y="121" width="13" height="13" rx="3" fill="#161b22"/><rect x="839" y="138" width="13" height="13" rx="3" fill="#161b22"/><rect x="839" y="155" width="13" height="13" rx="3" fill="#161b22"/><rect x="839" y="172" width="13" height="13" rx="3" fill="#161b22"/><rect x="839" y="189" width="13" height="13" rx="3" fill="#161b22"/><rect x="839" y="206" width="13" height="13" rx="3" fill="#161b22"/><rect x="856" y="104" width="13" height="13" rx="3" fill="#161b22"/><rect x="856" y="121" width="13" height="13" rx="3" fill="#161b22"/><rect x="856" y="138" width="13" height="13" rx="3" fill="#173b25"/><rect x="856" y="155" width="13" height="13" rx="3" fill="#173b25"/><rect x="856" y="172" width="13" height="13" rx="3" fill="#161b22"/><rect x="856" y="189" width="13" height="13" rx="3" fill="#161b22"/><rect x="856" y="206" width="13" height="13" rx="3" fill="#161b22"/><rect x="873" y="104" width="13" height="13" rx="3" fill="#161b22"/><rect x="873" y="121" width="13" height="13" rx="3" fill="#161b22"/><rect x="873" y="138" width="13" height="13" rx="3" fill="#161b22"/><rect x="873" y="155" width="13" height="13" rx="3" fill="#161b22"/><rect x="873" y="172" width="13" height="13" rx="3" fill="#161b22"/><rect x="873" y="189" width="13" height="13" rx="3" fill="#161b22"/><rect x="873" y="206" width="13" height="13" rx="3" fill="#161b22"/><rect x="890" y="104" width="13" height="13" rx="3" fill="#173b25"/><rect x="890" y="121" width="13" height="13" rx="3" fill="#173b25"/><rect x="890" y="138" width="13" height="13" rx="3" fill="#173b25"/><rect x="890" y="155" width="13" height="13" rx="3" fill="#173b25"/><rect x="890" y="172" width="13" height="13" rx="3" fill="#173b25"/><rect x="890" y="189" width="13" height="13" rx="3" fill="#173b25"/><rect x="890" y="206" width="13" height="13" rx="3" fill="#173b25"/><rect x="907" y="104" width="13" height="13" rx="3" fill="#173b25"/><rect x="907" y="121" width="13" height="13" rx="3" fill="#173b25"/><rect x="907" y="138" width="13" height="13" rx="3" fill="#173b25"/><rect x="907" y="155" width="13" height="13" rx="3" fill="#246b3d"/><rect x="907" y="172" width="13" height="13" rx="3" fill="#246b3d"/><rect x="907" y="189" width="13" height="13" rx="3" fill="#173b25"/><rect x="907" y="206" width="13" height="13" rx="3" fill="#246b3d"/><rect x="924" y="104" width="13" height="13" rx="3" fill="#7ee787"/><rect x="924" y="121" width="13" height="13" rx="3" fill="#246b3d"/><rect x="924" y="138" width="13" height="13" rx="3" fill="#161b22"/><rect x="924" y="155" width="13" height="13" rx="3" fill="#161b22"/><rect x="924" y="172" width="13" height="13" rx="3" fill="#161b22"/><rect x="924" y="189" width="13" height="13" rx="3" fill="#161b22"/><rect x="924" y="206" width="13" height="13" rx="3" fill="#161b22"/><rect x="941" y="104" width="13" height="13" rx="3" fill="#161b22"/><rect x="941" y="121" width="13" height="13" rx="3" fill="#161b22"/><rect x="941" y="138" width="13" height="13" rx="3" fill="#161b22"/><rect x="941" y="155" width="13" height="13" rx="3" fill="#161b22"/><rect x="941" y="172" width="13" height="13" rx="3" fill="#161b22"/><rect x="941" y="189" width="13" height="13" rx="3" fill="#161b22"/><rect x="941" y="206" width="13" height="13" rx="3" fill="#161b22"/><rect x="958" y="104" width="13" height="13" rx="3" fill="#161b22"/><rect x="958" y="121" width="13" height="13" rx="3" fill="#161b22"/><rect x="958" y="138" width="13" height="13" rx="3" fill="#161b22"/><rect x="958" y="155" width="13" height="13" rx="3" fill="#173b25"/><rect x="958" y="172" width="13" height="13" rx="3" fill="#161b22"/>
  <path d="M 42 144 C 50 132, 58 132, 66 144" class="lead-thread"/><g class="spool" transform="translate(28 126)"><circle cx="14" cy="18" r="13" class="spool-wood"/><circle cx="14" cy="18" r="5" class="spool-core"/><rect x="12" y="3" width="4" height="30" rx="2" class="spool-pin"/><path d="M 9 8 C 15 10, 19 14, 19 18 C 19 22, 15 26, 9 28" class="spool-wrap"/></g><polyline points="267,144 794,144 828,178 828,195 862,144 862,161 896,110 896,127 896,144 896,161 896,178 896,195 896,212 913,110 913,127 913,144 913,161 913,178 913,195 913,212 930,110 930,127 964,161" fill="none" class="trail"/><path d="M 909 174 L 917 182 M 917 174 L 909 182" class="stitch"/><path d="M 909 191 L 917 199 M 917 191 L 909 199" class="stitch"/><path d="M 909 208 L 917 216 M 917 208 L 909 216" class="stitch"/><path d="M 926 106 L 934 114 M 934 106 L 926 114" class="stitch"/><path d="M 926 123 L 934 131 M 934 123 L 926 131" class="stitch"/><g class="needle" transform="translate(964 161) rotate(-18)"><line x1="-22" y1="0" x2="-4" y2="0" class="thread"/><line x1="-4" y1="0" x2="10" y2="0" class="shaft"/><ellipse cx="14" cy="0" rx="6" ry="3.5" class="eye"/><circle cx="14" cy="0" r="1.2" class="eye-hole"/></g>
</svg>
