<svg xmlns="http://www.w3.org/2000/svg" width="1200" height="260" viewBox="0 0 1200 260" role="img" aria-label="Contribution trail">
  <style>
    :root { color-scheme: dark; }
    .bg { fill: #0d1117; }
    .title { font: 800 28px ui-monospace, SFMono-Regular, Menlo, Consolas, monospace; fill: #f0f6fc; }
    .sub { font: 650 14px ui-monospace, SFMono-Regular, Menlo, Consolas, monospace; fill: #8b949e; }
    .head { animation: hop 1.9s ease-in-out infinite; }
    @keyframes hop { 0%, 100% { transform: translateY(0); } 50% { transform: translateY(-5px); } }
    @media (prefers-reduced-motion: reduce) { * { animation: none !important; } }
  </style>
  <rect class="bg" width="1200" height="260"/>
  <text x="74" y="48" class="title">contribution trail</text>
  <text x="74" y="72" class="sub">662 contributions this year. The red dot follows the latest active days.</text>
  <rect x="74" y="94" width="13" height="13" rx="3" fill="#173b25"/><rect x="74" y="111" width="13" height="13" rx="3" fill="#2ea043"/><rect x="74" y="128" width="13" height="13" rx="3" fill="#161b22"/><rect x="74" y="145" width="13" height="13" rx="3" fill="#2ea043"/><rect x="74" y="162" width="13" height="13" rx="3" fill="#173b25"/><rect x="74" y="179" width="13" height="13" rx="3" fill="#161b22"/><rect x="74" y="196" width="13" height="13" rx="3" fill="#7ee787"/><rect x="91" y="94" width="13" height="13" rx="3" fill="#161b22"/><rect x="91" y="111" width="13" height="13" rx="3" fill="#173b25"/><rect x="91" y="128" width="13" height="13" rx="3" fill="#2ea043"/><rect x="91" y="145" width="13" height="13" rx="3" fill="#173b25"/><rect x="91" y="162" width="13" height="13" rx="3" fill="#246b3d"/><rect x="91" y="179" width="13" height="13" rx="3" fill="#246b3d"/><rect x="91" y="196" width="13" height="13" rx="3" fill="#2ea043"/><rect x="108" y="94" width="13" height="13" rx="3" fill="#173b25"/><rect x="108" y="111" width="13" height="13" rx="3" fill="#161b22"/><rect x="108" y="128" width="13" height="13" rx="3" fill="#2ea043"/><rect x="108" y="145" width="13" height="13" rx="3" fill="#173b25"/><rect x="108" y="162" width="13" height="13" rx="3" fill="#7ee787"/><rect x="108" y="179" width="13" height="13" rx="3" fill="#246b3d"/><rect x="108" y="196" width="13" height="13" rx="3" fill="#161b22"/><rect x="125" y="94" width="13" height="13" rx="3" fill="#7ee787"/><rect x="125" y="111" width="13" height="13" rx="3" fill="#173b25"/><rect x="125" y="128" width="13" height="13" rx="3" fill="#246b3d"/><rect x="125" y="145" width="13" height="13" rx="3" fill="#173b25"/><rect x="125" y="162" width="13" height="13" rx="3" fill="#173b25"/><rect x="125" y="179" width="13" height="13" rx="3" fill="#7ee787"/><rect x="125" y="196" width="13" height="13" rx="3" fill="#173b25"/><rect x="142" y="94" width="13" height="13" rx="3" fill="#173b25"/><rect x="142" y="111" width="13" height="13" rx="3" fill="#173b25"/><rect x="142" y="128" width="13" height="13" rx="3" fill="#161b22"/><rect x="142" y="145" width="13" height="13" rx="3" fill="#173b25"/><rect x="142" y="162" width="13" height="13" rx="3" fill="#2ea043"/><rect x="142" y="179" width="13" height="13" rx="3" fill="#2ea043"/><rect x="142" y="196" width="13" height="13" rx="3" fill="#246b3d"/><rect x="159" y="94" width="13" height="13" rx="3" fill="#246b3d"/><rect x="159" y="111" width="13" height="13" rx="3" fill="#173b25"/><rect x="159" y="128" width="13" height="13" rx="3" fill="#2ea043"/><rect x="159" y="145" width="13" height="13" rx="3" fill="#161b22"/><rect x="159" y="162" width="13" height="13" rx="3" fill="#7ee787"/><rect x="159" y="179" width="13" height="13" rx="3" fill="#173b25"/><rect x="159" y="196" width="13" height="13" rx="3" fill="#246b3d"/><rect x="176" y="94" width="13" height="13" rx="3" fill="#7ee787"/><rect x="176" y="111" width="13" height="13" rx="3" fill="#7ee787"/><rect x="176" y="128" width="13" height="13" rx="3" fill="#173b25"/><rect x="176" y="145" width="13" height="13" rx="3" fill="#246b3d"/><rect x="176" y="162" width="13" height="13" rx="3" fill="#246b3d"/><rect x="176" y="179" width="13" height="13" rx="3" fill="#2ea043"/><rect x="176" y="196" width="13" height="13" rx="3" fill="#161b22"/><rect x="193" y="94" width="13" height="13" rx="3" fill="#173b25"/><rect x="193" y="111" width="13" height="13" rx="3" fill="#246b3d"/><rect x="193" y="128" width="13" height="13" rx="3" fill="#173b25"/><rect x="193" y="145" width="13" height="13" rx="3" fill="#161b22"/><rect x="193" y="162" width="13" height="13" rx="3" fill="#173b25"/><rect x="193" y="179" width="13" height="13" rx="3" fill="#173b25"/><rect x="193" y="196" width="13" height="13" rx="3" fill="#2ea043"/><rect x="210" y="94" width="13" height="13" rx="3" fill="#2ea043"/><rect x="210" y="111" width="13" height="13" rx="3" fill="#161b22"/><rect x="210" y="128" width="13" height="13" rx="3" fill="#246b3d"/><rect x="210" y="145" width="13" height="13" rx="3" fill="#246b3d"/><rect x="210" y="162" width="13" height="13" rx="3" fill="#173b25"/><rect x="210" y="179" width="13" height="13" rx="3" fill="#2ea043"/><rect x="210" y="196" width="13" height="13" rx="3" fill="#7ee787"/><rect x="227" y="94" width="13" height="13" rx="3" fill="#246b3d"/><rect x="227" y="111" width="13" height="13" rx="3" fill="#173b25"/><rect x="227" y="128" width="13" height="13" rx="3" fill="#246b3d"/><rect x="227" y="145" width="13" height="13" rx="3" fill="#7ee787"/><rect x="227" y="162" width="13" height="13" rx="3" fill="#7ee787"/><rect x="227" y="179" width="13" height="13" rx="3" fill="#2ea043"/><rect x="227" y="196" width="13" height="13" rx="3" fill="#2ea043"/><rect x="244" y="94" width="13" height="13" rx="3" fill="#246b3d"/><rect x="244" y="111" width="13" height="13" rx="3" fill="#161b22"/><rect x="244" y="128" width="13" height="13" rx="3" fill="#246b3d"/><rect x="244" y="145" width="13" height="13" rx="3" fill="#161b22"/><rect x="244" y="162" width="13" height="13" rx="3" fill="#246b3d"/><rect x="244" y="179" width="13" height="13" rx="3" fill="#173b25"/><rect x="244" y="196" width="13" height="13" rx="3" fill="#2ea043"/><rect x="261" y="94" width="13" height="13" rx="3" fill="#2ea043"/><rect x="261" y="111" width="13" height="13" rx="3" fill="#173b25"/><rect x="261" y="128" width="13" height="13" rx="3" fill="#161b22"/><rect x="261" y="145" width="13" height="13" rx="3" fill="#173b25"/><rect x="261" y="162" width="13" height="13" rx="3" fill="#173b25"/><rect x="261" y="179" width="13" height="13" rx="3" fill="#246b3d"/><rect x="261" y="196" width="13" height="13" rx="3" fill="#161b22"/><rect x="278" y="94" width="13" height="13" rx="3" fill="#7ee787"/><rect x="278" y="111" width="13" height="13" rx="3" fill="#161b22"/><rect x="278" y="128" width="13" height="13" rx="3" fill="#173b25"/><rect x="278" y="145" width="13" height="13" rx="3" fill="#161b22"/><rect x="278" y="162" width="13" height="13" rx="3" fill="#2ea043"/><rect x="278" y="179" width="13" height="13" rx="3" fill="#173b25"/><rect x="278" y="196" width="13" height="13" rx="3" fill="#246b3d"/><rect x="295" y="94" width="13" height="13" rx="3" fill="#2ea043"/><rect x="295" y="111" width="13" height="13" rx="3" fill="#7ee787"/><rect x="295" y="128" width="13" height="13" rx="3" fill="#7ee787"/><rect x="295" y="145" width="13" height="13" rx="3" fill="#2ea043"/><rect x="295" y="162" width="13" height="13" rx="3" fill="#2ea043"/><rect x="295" y="179" width="13" height="13" rx="3" fill="#2ea043"/><rect x="295" y="196" width="13" height="13" rx="3" fill="#246b3d"/><rect x="312" y="94" width="13" height="13" rx="3" fill="#2ea043"/><rect x="312" y="111" width="13" height="13" rx="3" fill="#7ee787"/><rect x="312" y="128" width="13" height="13" rx="3" fill="#246b3d"/><rect x="312" y="145" width="13" height="13" rx="3" fill="#7ee787"/><rect x="312" y="162" width="13" height="13" rx="3" fill="#173b25"/><rect x="312" y="179" width="13" height="13" rx="3" fill="#246b3d"/><rect x="312" y="196" width="13" height="13" rx="3" fill="#173b25"/><rect x="329" y="94" width="13" height="13" rx="3" fill="#161b22"/><rect x="329" y="111" width="13" height="13" rx="3" fill="#173b25"/><rect x="329" y="128" width="13" height="13" rx="3" fill="#7ee787"/><rect x="329" y="145" width="13" height="13" rx="3" fill="#246b3d"/><rect x="329" y="162" width="13" height="13" rx="3" fill="#246b3d"/><rect x="329" y="179" width="13" height="13" rx="3" fill="#173b25"/><rect x="329" y="196" width="13" height="13" rx="3" fill="#173b25"/><rect x="346" y="94" width="13" height="13" rx="3" fill="#173b25"/><rect x="346" y="111" width="13" height="13" rx="3" fill="#246b3d"/><rect x="346" y="128" width="13" height="13" rx="3" fill="#173b25"/><rect x="346" y="145" width="13" height="13" rx="3" fill="#2ea043"/><rect x="346" y="162" width="13" height="13" rx="3" fill="#173b25"/><rect x="346" y="179" width="13" height="13" rx="3" fill="#161b22"/><rect x="346" y="196" width="13" height="13" rx="3" fill="#7ee787"/><rect x="363" y="94" width="13" height="13" rx="3" fill="#173b25"/><rect x="363" y="111" width="13" height="13" rx="3" fill="#7ee787"/><rect x="363" y="128" width="13" height="13" rx="3" fill="#173b25"/><rect x="363" y="145" width="13" height="13" rx="3" fill="#161b22"/><rect x="363" y="162" width="13" height="13" rx="3" fill="#173b25"/><rect x="363" y="179" width="13" height="13" rx="3" fill="#173b25"/><rect x="363" y="196" width="13" height="13" rx="3" fill="#173b25"/><rect x="380" y="94" width="13" height="13" rx="3" fill="#173b25"/><rect x="380" y="111" width="13" height="13" rx="3" fill="#173b25"/><rect x="380" y="128" width="13" height="13" rx="3" fill="#2ea043"/><rect x="380" y="145" width="13" height="13" rx="3" fill="#7ee787"/><rect x="380" y="162" width="13" height="13" rx="3" fill="#2ea043"/><rect x="380" y="179" width="13" height="13" rx="3" fill="#173b25"/><rect x="380" y="196" width="13" height="13" rx="3" fill="#246b3d"/><rect x="397" y="94" width="13" height="13" rx="3" fill="#173b25"/><rect x="397" y="111" width="13" height="13" rx="3" fill="#161b22"/><rect x="397" y="128" width="13" height="13" rx="3" fill="#173b25"/><rect x="397" y="145" width="13" height="13" rx="3" fill="#7ee787"/><rect x="397" y="162" width="13" height="13" rx="3" fill="#161b22"/><rect x="397" y="179" width="13" height="13" rx="3" fill="#173b25"/><rect x="397" y="196" width="13" height="13" rx="3" fill="#161b22"/><rect x="414" y="94" width="13" height="13" rx="3" fill="#246b3d"/><rect x="414" y="111" width="13" height="13" rx="3" fill="#7ee787"/><rect x="414" y="128" width="13" height="13" rx="3" fill="#173b25"/><rect x="414" y="145" width="13" height="13" rx="3" fill="#161b22"/><rect x="414" y="162" width="13" height="13" rx="3" fill="#2ea043"/><rect x="414" y="179" width="13" height="13" rx="3" fill="#173b25"/><rect x="414" y="196" width="13" height="13" rx="3" fill="#161b22"/><rect x="431" y="94" width="13" height="13" rx="3" fill="#173b25"/><rect x="431" y="111" width="13" height="13" rx="3" fill="#161b22"/><rect x="431" y="128" width="13" height="13" rx="3" fill="#173b25"/><rect x="431" y="145" width="13" height="13" rx="3" fill="#173b25"/><rect x="431" y="162" width="13" height="13" rx="3" fill="#161b22"/><rect x="431" y="179" width="13" height="13" rx="3" fill="#173b25"/><rect x="431" y="196" width="13" height="13" rx="3" fill="#161b22"/><rect x="448" y="94" width="13" height="13" rx="3" fill="#2ea043"/><rect x="448" y="111" width="13" height="13" rx="3" fill="#246b3d"/><rect x="448" y="128" width="13" height="13" rx="3" fill="#2ea043"/><rect x="448" y="145" width="13" height="13" rx="3" fill="#173b25"/><rect x="448" y="162" width="13" height="13" rx="3" fill="#246b3d"/><rect x="448" y="179" width="13" height="13" rx="3" fill="#173b25"/><rect x="448" y="196" width="13" height="13" rx="3" fill="#173b25"/><rect x="465" y="94" width="13" height="13" rx="3" fill="#173b25"/><rect x="465" y="111" width="13" height="13" rx="3" fill="#161b22"/><rect x="465" y="128" width="13" height="13" rx="3" fill="#161b22"/><rect x="465" y="145" width="13" height="13" rx="3" fill="#173b25"/><rect x="465" y="162" width="13" height="13" rx="3" fill="#246b3d"/><rect x="465" y="179" width="13" height="13" rx="3" fill="#246b3d"/><rect x="465" y="196" width="13" height="13" rx="3" fill="#161b22"/><rect x="482" y="94" width="13" height="13" rx="3" fill="#246b3d"/><rect x="482" y="111" width="13" height="13" rx="3" fill="#173b25"/><rect x="482" y="128" width="13" height="13" rx="3" fill="#7ee787"/><rect x="482" y="145" width="13" height="13" rx="3" fill="#173b25"/><rect x="482" y="162" width="13" height="13" rx="3" fill="#161b22"/><rect x="482" y="179" width="13" height="13" rx="3" fill="#161b22"/><rect x="482" y="196" width="13" height="13" rx="3" fill="#161b22"/><rect x="499" y="94" width="13" height="13" rx="3" fill="#173b25"/><rect x="499" y="111" width="13" height="13" rx="3" fill="#161b22"/><rect x="499" y="128" width="13" height="13" rx="3" fill="#2ea043"/><rect x="499" y="145" width="13" height="13" rx="3" fill="#2ea043"/><rect x="499" y="162" width="13" height="13" rx="3" fill="#246b3d"/><rect x="499" y="179" width="13" height="13" rx="3" fill="#7ee787"/><rect x="499" y="196" width="13" height="13" rx="3" fill="#7ee787"/><rect x="516" y="94" width="13" height="13" rx="3" fill="#161b22"/><rect x="516" y="111" width="13" height="13" rx="3" fill="#161b22"/><rect x="516" y="128" width="13" height="13" rx="3" fill="#7ee787"/><rect x="516" y="145" width="13" height="13" rx="3" fill="#173b25"/><rect x="516" y="162" width="13" height="13" rx="3" fill="#173b25"/><rect x="516" y="179" width="13" height="13" rx="3" fill="#161b22"/><rect x="516" y="196" width="13" height="13" rx="3" fill="#246b3d"/><rect x="533" y="94" width="13" height="13" rx="3" fill="#246b3d"/><rect x="533" y="111" width="13" height="13" rx="3" fill="#161b22"/><rect x="533" y="128" width="13" height="13" rx="3" fill="#161b22"/><rect x="533" y="145" width="13" height="13" rx="3" fill="#246b3d"/><rect x="533" y="162" width="13" height="13" rx="3" fill="#246b3d"/><rect x="533" y="179" width="13" height="13" rx="3" fill="#173b25"/><rect x="533" y="196" width="13" height="13" rx="3" fill="#173b25"/><rect x="550" y="94" width="13" height="13" rx="3" fill="#173b25"/><rect x="550" y="111" width="13" height="13" rx="3" fill="#161b22"/><rect x="550" y="128" width="13" height="13" rx="3" fill="#246b3d"/><rect x="550" y="145" width="13" height="13" rx="3" fill="#173b25"/><rect x="550" y="162" width="13" height="13" rx="3" fill="#246b3d"/><rect x="550" y="179" width="13" height="13" rx="3" fill="#161b22"/><rect x="550" y="196" width="13" height="13" rx="3" fill="#161b22"/><rect x="567" y="94" width="13" height="13" rx="3" fill="#173b25"/><rect x="567" y="111" width="13" height="13" rx="3" fill="#173b25"/><rect x="567" y="128" width="13" height="13" rx="3" fill="#7ee787"/><rect x="567" y="145" width="13" height="13" rx="3" fill="#246b3d"/><rect x="567" y="162" width="13" height="13" rx="3" fill="#173b25"/><rect x="567" y="179" width="13" height="13" rx="3" fill="#173b25"/><rect x="567" y="196" width="13" height="13" rx="3" fill="#173b25"/><rect x="584" y="94" width="13" height="13" rx="3" fill="#7ee787"/><rect x="584" y="111" width="13" height="13" rx="3" fill="#246b3d"/><rect x="584" y="128" width="13" height="13" rx="3" fill="#173b25"/><rect x="584" y="145" width="13" height="13" rx="3" fill="#173b25"/><rect x="584" y="162" width="13" height="13" rx="3" fill="#161b22"/><rect x="584" y="179" width="13" height="13" rx="3" fill="#161b22"/><rect x="584" y="196" width="13" height="13" rx="3" fill="#7ee787"/><rect x="601" y="94" width="13" height="13" rx="3" fill="#2ea043"/><rect x="601" y="111" width="13" height="13" rx="3" fill="#173b25"/><rect x="601" y="128" width="13" height="13" rx="3" fill="#173b25"/><rect x="601" y="145" width="13" height="13" rx="3" fill="#161b22"/><rect x="601" y="162" width="13" height="13" rx="3" fill="#246b3d"/><rect x="601" y="179" width="13" height="13" rx="3" fill="#173b25"/><rect x="601" y="196" width="13" height="13" rx="3" fill="#246b3d"/><rect x="618" y="94" width="13" height="13" rx="3" fill="#161b22"/><rect x="618" y="111" width="13" height="13" rx="3" fill="#246b3d"/><rect x="618" y="128" width="13" height="13" rx="3" fill="#161b22"/><rect x="618" y="145" width="13" height="13" rx="3" fill="#173b25"/><rect x="618" y="162" width="13" height="13" rx="3" fill="#173b25"/><rect x="618" y="179" width="13" height="13" rx="3" fill="#2ea043"/><rect x="618" y="196" width="13" height="13" rx="3" fill="#7ee787"/><rect x="635" y="94" width="13" height="13" rx="3" fill="#173b25"/><rect x="635" y="111" width="13" height="13" rx="3" fill="#161b22"/><rect x="635" y="128" width="13" height="13" rx="3" fill="#7ee787"/><rect x="635" y="145" width="13" height="13" rx="3" fill="#7ee787"/><rect x="635" y="162" width="13" height="13" rx="3" fill="#173b25"/><rect x="635" y="179" width="13" height="13" rx="3" fill="#7ee787"/><rect x="635" y="196" width="13" height="13" rx="3" fill="#246b3d"/><rect x="652" y="94" width="13" height="13" rx="3" fill="#173b25"/><rect x="652" y="111" width="13" height="13" rx="3" fill="#161b22"/><rect x="652" y="128" width="13" height="13" rx="3" fill="#161b22"/><rect x="652" y="145" width="13" height="13" rx="3" fill="#161b22"/><rect x="652" y="162" width="13" height="13" rx="3" fill="#161b22"/><rect x="652" y="179" width="13" height="13" rx="3" fill="#173b25"/><rect x="652" y="196" width="13" height="13" rx="3" fill="#2ea043"/><rect x="669" y="94" width="13" height="13" rx="3" fill="#161b22"/><rect x="669" y="111" width="13" height="13" rx="3" fill="#173b25"/><rect x="669" y="128" width="13" height="13" rx="3" fill="#2ea043"/><rect x="669" y="145" width="13" height="13" rx="3" fill="#161b22"/><rect x="669" y="162" width="13" height="13" rx="3" fill="#161b22"/><rect x="669" y="179" width="13" height="13" rx="3" fill="#7ee787"/><rect x="669" y="196" width="13" height="13" rx="3" fill="#173b25"/><rect x="686" y="94" width="13" height="13" rx="3" fill="#161b22"/><rect x="686" y="111" width="13" height="13" rx="3" fill="#173b25"/><rect x="686" y="128" width="13" height="13" rx="3" fill="#7ee787"/><rect x="686" y="145" width="13" height="13" rx="3" fill="#173b25"/><rect x="686" y="162" width="13" height="13" rx="3" fill="#161b22"/><rect x="686" y="179" width="13" height="13" rx="3" fill="#7ee787"/><rect x="686" y="196" width="13" height="13" rx="3" fill="#173b25"/><rect x="703" y="94" width="13" height="13" rx="3" fill="#2ea043"/><rect x="703" y="111" width="13" height="13" rx="3" fill="#161b22"/><rect x="703" y="128" width="13" height="13" rx="3" fill="#173b25"/><rect x="703" y="145" width="13" height="13" rx="3" fill="#7ee787"/><rect x="703" y="162" width="13" height="13" rx="3" fill="#7ee787"/><rect x="703" y="179" width="13" height="13" rx="3" fill="#173b25"/><rect x="703" y="196" width="13" height="13" rx="3" fill="#161b22"/><rect x="720" y="94" width="13" height="13" rx="3" fill="#246b3d"/><rect x="720" y="111" width="13" height="13" rx="3" fill="#2ea043"/><rect x="720" y="128" width="13" height="13" rx="3" fill="#161b22"/><rect x="720" y="145" width="13" height="13" rx="3" fill="#173b25"/><rect x="720" y="162" width="13" height="13" rx="3" fill="#161b22"/><rect x="720" y="179" width="13" height="13" rx="3" fill="#161b22"/><rect x="720" y="196" width="13" height="13" rx="3" fill="#161b22"/><rect x="737" y="94" width="13" height="13" rx="3" fill="#7ee787"/><rect x="737" y="111" width="13" height="13" rx="3" fill="#161b22"/><rect x="737" y="128" width="13" height="13" rx="3" fill="#161b22"/><rect x="737" y="145" width="13" height="13" rx="3" fill="#2ea043"/><rect x="737" y="162" width="13" height="13" rx="3" fill="#7ee787"/><rect x="737" y="179" width="13" height="13" rx="3" fill="#161b22"/><rect x="737" y="196" width="13" height="13" rx="3" fill="#161b22"/><rect x="754" y="94" width="13" height="13" rx="3" fill="#7ee787"/><rect x="754" y="111" width="13" height="13" rx="3" fill="#2ea043"/><rect x="754" y="128" width="13" height="13" rx="3" fill="#173b25"/><rect x="754" y="145" width="13" height="13" rx="3" fill="#7ee787"/><rect x="754" y="162" width="13" height="13" rx="3" fill="#161b22"/><rect x="754" y="179" width="13" height="13" rx="3" fill="#2ea043"/><rect x="754" y="196" width="13" height="13" rx="3" fill="#161b22"/><rect x="771" y="94" width="13" height="13" rx="3" fill="#173b25"/><rect x="771" y="111" width="13" height="13" rx="3" fill="#246b3d"/><rect x="771" y="128" width="13" height="13" rx="3" fill="#246b3d"/><rect x="771" y="145" width="13" height="13" rx="3" fill="#7ee787"/><rect x="771" y="162" width="13" height="13" rx="3" fill="#161b22"/><rect x="771" y="179" width="13" height="13" rx="3" fill="#161b22"/><rect x="771" y="196" width="13" height="13" rx="3" fill="#2ea043"/><rect x="788" y="94" width="13" height="13" rx="3" fill="#161b22"/><rect x="788" y="111" width="13" height="13" rx="3" fill="#161b22"/><rect x="788" y="128" width="13" height="13" rx="3" fill="#7ee787"/><rect x="788" y="145" width="13" height="13" rx="3" fill="#173b25"/><rect x="788" y="162" width="13" height="13" rx="3" fill="#7ee787"/><rect x="788" y="179" width="13" height="13" rx="3" fill="#7ee787"/><rect x="788" y="196" width="13" height="13" rx="3" fill="#2ea043"/><rect x="805" y="94" width="13" height="13" rx="3" fill="#7ee787"/><rect x="805" y="111" width="13" height="13" rx="3" fill="#161b22"/><rect x="805" y="128" width="13" height="13" rx="3" fill="#7ee787"/><rect x="805" y="145" width="13" height="13" rx="3" fill="#2ea043"/><rect x="805" y="162" width="13" height="13" rx="3" fill="#161b22"/><rect x="805" y="179" width="13" height="13" rx="3" fill="#173b25"/><rect x="805" y="196" width="13" height="13" rx="3" fill="#161b22"/><rect x="822" y="94" width="13" height="13" rx="3" fill="#7ee787"/><rect x="822" y="111" width="13" height="13" rx="3" fill="#161b22"/><rect x="822" y="128" width="13" height="13" rx="3" fill="#246b3d"/><rect x="822" y="145" width="13" height="13" rx="3" fill="#173b25"/><rect x="822" y="162" width="13" height="13" rx="3" fill="#7ee787"/><rect x="822" y="179" width="13" height="13" rx="3" fill="#246b3d"/><rect x="822" y="196" width="13" height="13" rx="3" fill="#161b22"/><rect x="839" y="94" width="13" height="13" rx="3" fill="#7ee787"/><rect x="839" y="111" width="13" height="13" rx="3" fill="#246b3d"/><rect x="839" y="128" width="13" height="13" rx="3" fill="#161b22"/><rect x="839" y="145" width="13" height="13" rx="3" fill="#173b25"/><rect x="839" y="162" width="13" height="13" rx="3" fill="#2ea043"/><rect x="839" y="179" width="13" height="13" rx="3" fill="#7ee787"/><rect x="839" y="196" width="13" height="13" rx="3" fill="#161b22"/><rect x="856" y="94" width="13" height="13" rx="3" fill="#246b3d"/><rect x="856" y="111" width="13" height="13" rx="3" fill="#173b25"/><rect x="856" y="128" width="13" height="13" rx="3" fill="#173b25"/><rect x="856" y="145" width="13" height="13" rx="3" fill="#173b25"/><rect x="856" y="162" width="13" height="13" rx="3" fill="#173b25"/><rect x="856" y="179" width="13" height="13" rx="3" fill="#246b3d"/><rect x="856" y="196" width="13" height="13" rx="3" fill="#2ea043"/><rect x="873" y="94" width="13" height="13" rx="3" fill="#173b25"/><rect x="873" y="111" width="13" height="13" rx="3" fill="#161b22"/><rect x="873" y="128" width="13" height="13" rx="3" fill="#7ee787"/><rect x="873" y="145" width="13" height="13" rx="3" fill="#161b22"/><rect x="873" y="162" width="13" height="13" rx="3" fill="#161b22"/><rect x="873" y="179" width="13" height="13" rx="3" fill="#173b25"/><rect x="873" y="196" width="13" height="13" rx="3" fill="#161b22"/><rect x="890" y="94" width="13" height="13" rx="3" fill="#161b22"/><rect x="890" y="111" width="13" height="13" rx="3" fill="#7ee787"/><rect x="890" y="128" width="13" height="13" rx="3" fill="#173b25"/><rect x="890" y="145" width="13" height="13" rx="3" fill="#161b22"/><rect x="890" y="162" width="13" height="13" rx="3" fill="#7ee787"/><rect x="890" y="179" width="13" height="13" rx="3" fill="#161b22"/><rect x="890" y="196" width="13" height="13" rx="3" fill="#2ea043"/><rect x="907" y="94" width="13" height="13" rx="3" fill="#173b25"/><rect x="907" y="111" width="13" height="13" rx="3" fill="#2ea043"/><rect x="907" y="128" width="13" height="13" rx="3" fill="#173b25"/><rect x="907" y="145" width="13" height="13" rx="3" fill="#173b25"/><rect x="907" y="162" width="13" height="13" rx="3" fill="#7ee787"/><rect x="907" y="179" width="13" height="13" rx="3" fill="#173b25"/><rect x="907" y="196" width="13" height="13" rx="3" fill="#173b25"/><rect x="924" y="94" width="13" height="13" rx="3" fill="#7ee787"/><rect x="924" y="111" width="13" height="13" rx="3" fill="#173b25"/><rect x="924" y="128" width="13" height="13" rx="3" fill="#161b22"/><rect x="924" y="145" width="13" height="13" rx="3" fill="#161b22"/><rect x="924" y="162" width="13" height="13" rx="3" fill="#7ee787"/><rect x="924" y="179" width="13" height="13" rx="3" fill="#7ee787"/><rect x="924" y="196" width="13" height="13" rx="3" fill="#173b25"/><rect x="941" y="94" width="13" height="13" rx="3" fill="#173b25"/><rect x="941" y="111" width="13" height="13" rx="3" fill="#173b25"/><rect x="941" y="128" width="13" height="13" rx="3" fill="#2ea043"/><rect x="941" y="145" width="13" height="13" rx="3" fill="#161b22"/><rect x="941" y="162" width="13" height="13" rx="3" fill="#246b3d"/><rect x="941" y="179" width="13" height="13" rx="3" fill="#161b22"/><rect x="941" y="196" width="13" height="13" rx="3" fill="#173b25"/><rect x="958" y="94" width="13" height="13" rx="3" fill="#246b3d"/><rect x="958" y="111" width="13" height="13" rx="3" fill="#161b22"/><rect x="958" y="128" width="13" height="13" rx="3" fill="#246b3d"/><rect x="958" y="145" width="13" height="13" rx="3" fill="#161b22"/><rect x="958" y="162" width="13" height="13" rx="3" fill="#173b25"/><rect x="958" y="179" width="13" height="13" rx="3" fill="#246b3d"/><rect x="958" y="196" width="13" height="13" rx="3" fill="#246b3d"/>
  <polyline points="828,185 845,100 845,117 845,151 845,168 845,185 862,100 862,117 862,134 862,151 862,168 862,185 862,202 879,100 879,134 879,185 896,117 896,134 896,168 896,202 913,100 913,117 913,134 913,151 913,168 913,185 913,202 930,100 930,117 930,168 930,185 930,202 947,100 947,117 947,134 947,168 947,202 964,100 964,134 964,168 964,185 964,202" fill="none" stroke="#7ee787" stroke-width="4" stroke-linecap="round" stroke-linejoin="round" opacity=".62"/><circle cx="964" cy="202" r="8" fill="#ff7b72" class="head"/>
</svg>
