<svg xmlns="http://www.w3.org/2000/svg" width="1200" height="260" viewBox="0 0 1200 260" role="img" aria-label="Contribution trail">
  <style>
    :root { color-scheme: dark; }
    .bg { fill: #0d1117; }
    .panel { fill: #161b22; stroke: #30363d; stroke-width: 1.2; }
    .panel-stitch { fill: none; stroke: #8b949e; stroke-width: 1.4; stroke-linecap: round; stroke-dasharray: 1.5 5.5; opacity: .7; }
    .title { font: 800 28px ui-monospace, SFMono-Regular, Menlo, Consolas, monospace; fill: #f0f6fc; }
    .sub { font: 650 14px ui-monospace, SFMono-Regular, Menlo, Consolas, monospace; fill: #8b949e; }
    .month { font: 650 12px ui-monospace, SFMono-Regular, Menlo, Consolas, monospace; fill: #6e7681; }
    .weekday { font: 650 11px ui-monospace, SFMono-Regular, Menlo, Consolas, monospace; fill: #6e7681; text-anchor: end; }
    .trail { stroke: #7ee787; stroke-width: 4; stroke-linecap: round; stroke-linejoin: round; opacity: .58; stroke-dasharray: 3 9; }
    .lead-thread { fill: none; stroke: #ff7b72; stroke-width: 2.4; stroke-linecap: round; opacity: .72; stroke-dasharray: 2 8; }
    .stitch { stroke: #79c0ff; stroke-width: 1.7; stroke-linecap: round; opacity: .9; }
    .thread { stroke: #ff7b72; stroke-width: 3.2; stroke-linecap: round; }
    .shaft { stroke: #c9d1d9; stroke-width: 3.2; stroke-linecap: round; }
    .eye { fill: none; stroke: #f0f6fc; stroke-width: 2; }
    .eye-hole { fill: #f0f6fc; }
    .spool-wood { fill: #d29922; stroke: #8b949e; stroke-width: 1.2; }
    .spool-core { fill: #0d1117; opacity: .8; }
    .spool-pin { fill: #f6e58d; opacity: .9; }
    .spool-wrap { fill: none; stroke: #ff7b72; stroke-width: 2; stroke-linecap: round; opacity: .9; }
    .bow-loop { fill: none; stroke: #79c0ff; stroke-width: 1.8; stroke-linecap: round; stroke-linejoin: round; opacity: .82; }
    .bow-tail { fill: none; stroke: #79c0ff; stroke-width: 1.8; stroke-linecap: round; opacity: .72; stroke-dasharray: 2 5; }
    .bow-knot { fill: #f6e58d; stroke: #8b949e; stroke-width: 1; }
    .spool { animation: bob 6s ease-in-out infinite; transform-origin: 14px 18px; }
    .needle { animation: hop 1.9s ease-in-out infinite; }
    .pin-stem { fill: none; stroke: #c9d1d9; stroke-width: 1.8; stroke-linecap: round; opacity: .9; }
    .pin-flag { fill: #79c0ff; stroke: #30363d; stroke-width: 1.1; opacity: .96; }
    .pin-flag-stitch { fill: none; stroke: #f0f6fc; stroke-width: 1; stroke-linecap: round; stroke-dasharray: 1.5 3.5; opacity: .72; }
    .pin-text { font: 800 8px ui-monospace, SFMono-Regular, Menlo, Consolas, monospace; letter-spacing: .8px; fill: #0d1117; }
    .latest-loop { animation: orbit-mark 3.8s ease-in-out infinite; transform-origin: center; }
    .latest-loop-ring { fill: none; stroke: #f6e58d; stroke-width: 1.8; stroke-linecap: round; stroke-linejoin: round; opacity: .9; }
    .latest-loop-spark { fill: none; stroke: #79c0ff; stroke-width: 1.5; stroke-linecap: round; opacity: .85; }
    .latest-loop-dot { fill: #79c0ff; opacity: .92; }
    .tag-string { fill: none; stroke: #8b949e; stroke-width: 1.5; stroke-linecap: round; stroke-dasharray: 2 5; opacity: .72; }
    .tag-clip { fill: none; stroke: #c9d1d9; stroke-width: 1.5; stroke-linecap: round; stroke-linejoin: round; opacity: .88; }
    .tag-ring { fill: none; stroke: #f0f6fc; stroke-width: 1.3; opacity: .82; }
    .tag-ring-shadow { fill: none; stroke: #79c0ff; stroke-width: 2.6; opacity: .12; }
    .tag { fill: #111827; stroke: #30363d; stroke-width: 1.2; }
    .tag-eyelet { fill: #0d1117; stroke: #8b949e; stroke-width: 1.2; }
    .tag-kicker { font: 700 10px ui-monospace, SFMono-Regular, Menlo, Consolas, monospace; fill: #8b949e; letter-spacing: 1.1px; text-transform: uppercase; }
    .tag-text { font: 700 13px ui-monospace, SFMono-Regular, Menlo, Consolas, monospace; fill: #f0f6fc; }
    .tag-accent { fill: #7ee787; }
    .tag-stitch { fill: none; stroke: #8b949e; stroke-width: 1.2; stroke-linecap: round; stroke-dasharray: 1.5 5; opacity: .9; }
    .tag-bar-strong { fill: #f0f6fc; opacity: .7; }
    .tag-bar-soft { fill: #8b949e; opacity: .45; }
    .tag-stub { fill: #0f1724; opacity: .92; }
    .tag-perf { fill: none; stroke: #8b949e; stroke-width: 1.1; stroke-linecap: round; stroke-dasharray: 1.2 4.2; opacity: .9; }
    @keyframes bob { 0%, 100% { transform: rotate(0deg) translateY(0); } 50% { transform: rotate(-6deg) translateY(-2px); } }
    @keyframes hop { 0%, 100% { transform: translateY(0); } 50% { transform: translateY(-5px); } }
    @keyframes orbit-mark { 0%, 100% { transform: rotate(-3deg) translateY(0); } 50% { transform: rotate(2deg) translateY(-1px); } }
    @media (prefers-reduced-motion: reduce) { * { animation: none !important; } }
  </style>
  <rect class="bg" width="1200" height="260"/>
  <rect x="42" y="18" width="1116" height="210" rx="18" class="panel"/>
  <path d="M 66 42 C 66 28, 76 20, 90 20" class="panel-stitch"/>
  <path d="M 1092 226 C 1110 226, 1124 214, 1124 196" class="panel-stitch"/>
  <text x="74" y="48" class="title">contribution trail</text>
  <text x="74" y="72" class="sub">356 contributions this year. A tiny needle threads through the latest active days.</text>
  <g transform="translate(968 20) rotate(-4)">
    <ellipse cx="20" cy="-4" rx="10" ry="6" class="tag-ring-shadow"/>
    <ellipse cx="20" cy="-4" rx="8" ry="4.8" class="tag-ring"/>
    <path d="M 15 -1 C 15 7, 19 12, 24 12 C 28 12, 31 8, 31 4 C 31 0, 28 -3, 24 -3 C 20 -3, 18 -1, 18 2" class="tag-clip"/>
    <path d="M 20 0 C 18 14, 18 24, 24 31" class="tag-string"/>
    <path d="M 24 31 L 210 31 L 224 56 L 210 81 L 24 81 Q 10 81 10 56 Q 10 31 24 31 Z" class="tag"/>
    <circle cx="28" cy="49" r="6" class="tag-eyelet"/>
    <circle cx="28" cy="49" r="2.5" class="bg"/>
    <path d="M 42 49 H 200" class="tag-stitch"/>
    <circle cx="50" cy="49" r="4" class="tag-accent"/>
    <text x="62" y="46" class="tag-kicker">recent patch</text>
    <text x="62" y="63" class="tag-text">care os</text>
    <text x="62" y="76" class="tag-kicker">small spark lately</text>
    <rect x="162" y="35" width="40" height="42" rx="10" class="tag-stub"/>
    <path d="M 156 39 V 73" class="tag-perf"/>
    <rect x="174" y="41" width="2.2" height="30" class="tag-bar-strong"/><rect x="179" y="41" width="1.4" height="30" class="tag-bar-soft"/><rect x="183" y="41" width="3.0" height="30" class="tag-bar-strong"/><rect x="189" y="41" width="1.6" height="30" class="tag-bar-soft"/><rect x="193" y="41" width="2.4" height="30" class="tag-bar-strong"/><rect x="199" y="41" width="1.2" height="30" class="tag-bar-soft"/><rect x="203" y="41" width="3.4" height="30" class="tag-bar-strong"/>
  </g>
  <text x="56" y="131" class="weekday">mon</text><text x="56" y="165" class="weekday">wed</text><text x="56" y="199" class="weekday">fri</text>
  <text x="74" y="90" class="month">jul</text><text x="125" y="90" class="month">aug</text><text x="210" y="90" class="month">sep</text><text x="278" y="90" class="month">oct</text><text x="346" y="90" class="month">nov</text><text x="431" y="90" class="month">dec</text><text x="499" y="90" class="month">jan</text><text x="584" y="90" class="month">feb</text><text x="652" y="90" class="month">mar</text><text x="720" y="90" class="month">apr</text><text x="788" y="90" class="month">may</text><text x="873" y="90" class="month">jun</text><text x="941" y="90" class="month">jul</text>
  <rect x="74" y="104" width="13" height="13" rx="3" fill="#161b22"/><rect x="74" y="121" width="13" height="13" rx="3" fill="#161b22"/><rect x="74" y="138" width="13" height="13" rx="3" fill="#161b22"/><rect x="74" y="155" width="13" height="13" rx="3" fill="#161b22"/><rect x="74" y="172" width="13" height="13" rx="3" fill="#161b22"/><rect x="74" y="189" width="13" height="13" rx="3" fill="#161b22"/><rect x="74" y="206" width="13" height="13" rx="3" fill="#161b22"/><rect x="91" y="104" width="13" height="13" rx="3" fill="#161b22"/><rect x="91" y="121" width="13" height="13" rx="3" fill="#161b22"/><rect x="91" y="138" width="13" height="13" rx="3" fill="#161b22"/><rect x="91" y="155" width="13" height="13" rx="3" fill="#161b22"/><rect x="91" y="172" width="13" height="13" rx="3" fill="#161b22"/><rect x="91" y="189" width="13" height="13" rx="3" fill="#161b22"/><rect x="91" y="206" width="13" height="13" rx="3" fill="#161b22"/><rect x="108" y="104" width="13" height="13" rx="3" fill="#161b22"/><rect x="108" y="121" width="13" height="13" rx="3" fill="#161b22"/><rect x="108" y="138" width="13" height="13" rx="3" fill="#161b22"/><rect x="108" y="155" width="13" height="13" rx="3" fill="#161b22"/><rect x="108" y="172" width="13" height="13" rx="3" fill="#161b22"/><rect x="108" y="189" width="13" height="13" rx="3" fill="#161b22"/><rect x="108" y="206" width="13" height="13" rx="3" fill="#161b22"/><rect x="125" y="104" width="13" height="13" rx="3" fill="#161b22"/><rect x="125" y="121" width="13" height="13" rx="3" fill="#161b22"/><rect x="125" y="138" width="13" height="13" rx="3" fill="#161b22"/><rect x="125" y="155" width="13" height="13" rx="3" fill="#161b22"/><rect x="125" y="172" width="13" height="13" rx="3" fill="#161b22"/><rect x="125" y="189" width="13" height="13" rx="3" fill="#161b22"/><rect x="125" y="206" width="13" height="13" rx="3" fill="#161b22"/><rect x="142" y="104" width="13" height="13" rx="3" fill="#161b22"/><rect x="142" y="121" width="13" height="13" rx="3" fill="#161b22"/><rect x="142" y="138" width="13" height="13" rx="3" fill="#161b22"/><rect x="142" y="155" width="13" height="13" rx="3" fill="#161b22"/><rect x="142" y="172" width="13" height="13" rx="3" fill="#161b22"/><rect x="142" y="189" width="13" height="13" rx="3" fill="#161b22"/><rect x="142" y="206" width="13" height="13" rx="3" fill="#161b22"/><rect x="159" y="104" width="13" height="13" rx="3" fill="#161b22"/><rect x="159" y="121" width="13" height="13" rx="3" fill="#161b22"/><rect x="159" y="138" width="13" height="13" rx="3" fill="#161b22"/><rect x="159" y="155" width="13" height="13" rx="3" fill="#161b22"/><rect x="159" y="172" width="13" height="13" rx="3" fill="#161b22"/><rect x="159" y="189" width="13" height="13" rx="3" fill="#161b22"/><rect x="159" y="206" width="13" height="13" rx="3" fill="#161b22"/><rect x="176" y="104" width="13" height="13" rx="3" fill="#161b22"/><rect x="176" y="121" width="13" height="13" rx="3" fill="#161b22"/><rect x="176" y="138" width="13" height="13" rx="3" fill="#161b22"/><rect x="176" y="155" width="13" height="13" rx="3" fill="#161b22"/><rect x="176" y="172" width="13" height="13" rx="3" fill="#161b22"/><rect x="176" y="189" width="13" height="13" rx="3" fill="#161b22"/><rect x="176" y="206" width="13" height="13" rx="3" fill="#161b22"/><rect x="193" y="104" width="13" height="13" rx="3" fill="#161b22"/><rect x="193" y="121" width="13" height="13" rx="3" fill="#161b22"/><rect x="193" y="138" width="13" height="13" rx="3" fill="#161b22"/><rect x="193" y="155" width="13" height="13" rx="3" fill="#161b22"/><rect x="193" y="172" width="13" height="13" rx="3" fill="#161b22"/><rect x="193" y="189" width="13" height="13" rx="3" fill="#161b22"/><rect x="193" y="206" width="13" height="13" rx="3" fill="#161b22"/><rect x="210" y="104" width="13" height="13" rx="3" fill="#161b22"/><rect x="210" y="121" width="13" height="13" rx="3" fill="#161b22"/><rect x="210" y="138" width="13" height="13" rx="3" fill="#161b22"/><rect x="210" y="155" width="13" height="13" rx="3" fill="#161b22"/><rect x="210" y="172" width="13" height="13" rx="3" fill="#161b22"/><rect x="210" y="189" width="13" height="13" rx="3" fill="#161b22"/><rect x="210" y="206" width="13" height="13" rx="3" fill="#161b22"/><rect x="227" y="104" width="13" height="13" rx="3" fill="#161b22"/><rect x="227" y="121" width="13" height="13" rx="3" fill="#161b22"/><rect x="227" y="138" width="13" height="13" rx="3" fill="#161b22"/><rect x="227" y="155" width="13" height="13" rx="3" fill="#161b22"/><rect x="227" y="172" width="13" height="13" rx="3" fill="#161b22"/><rect x="227" y="189" width="13" height="13" rx="3" fill="#161b22"/><rect x="227" y="206" width="13" height="13" rx="3" fill="#161b22"/><rect x="244" y="104" width="13" height="13" rx="3" fill="#161b22"/><rect x="244" y="121" width="13" height="13" rx="3" fill="#161b22"/><rect x="244" y="138" width="13" height="13" rx="3" fill="#161b22"/><rect x="244" y="155" width="13" height="13" rx="3" fill="#161b22"/><rect x="244" y="172" width="13" height="13" rx="3" fill="#161b22"/><rect x="244" y="189" width="13" height="13" rx="3" fill="#161b22"/><rect x="244" y="206" width="13" height="13" rx="3" fill="#161b22"/><rect x="261" y="104" width="13" height="13" rx="3" fill="#161b22"/><rect x="261" y="121" width="13" height="13" rx="3" fill="#161b22"/><rect x="261" y="138" width="13" height="13" rx="3" fill="#173b25"/><rect x="261" y="155" width="13" height="13" rx="3" fill="#161b22"/><rect x="261" y="172" width="13" height="13" rx="3" fill="#161b22"/><rect x="261" y="189" width="13" height="13" rx="3" fill="#161b22"/><rect x="261" y="206" width="13" height="13" rx="3" fill="#161b22"/><rect x="278" y="104" width="13" height="13" rx="3" fill="#161b22"/><rect x="278" y="121" width="13" height="13" rx="3" fill="#161b22"/><rect x="278" y="138" width="13" height="13" rx="3" fill="#161b22"/><rect x="278" y="155" width="13" height="13" rx="3" fill="#161b22"/><rect x="278" y="172" width="13" height="13" rx="3" fill="#161b22"/><rect x="278" y="189" width="13" height="13" rx="3" fill="#161b22"/><rect x="278" y="206" width="13" height="13" rx="3" fill="#161b22"/><rect x="295" y="104" width="13" height="13" rx="3" fill="#161b22"/><rect x="295" y="121" width="13" height="13" rx="3" fill="#161b22"/><rect x="295" y="138" width="13" height="13" rx="3" fill="#161b22"/><rect x="295" y="155" width="13" height="13" rx="3" fill="#161b22"/><rect x="295" y="172" width="13" height="13" rx="3" fill="#161b22"/><rect x="295" y="189" width="13" height="13" rx="3" fill="#161b22"/><rect x="295" y="206" width="13" height="13" rx="3" fill="#161b22"/><rect x="312" y="104" width="13" height="13" rx="3" fill="#161b22"/><rect x="312" y="121" width="13" height="13" rx="3" fill="#161b22"/><rect x="312" y="138" width="13" height="13" rx="3" fill="#161b22"/><rect x="312" y="155" width="13" height="13" rx="3" fill="#161b22"/><rect x="312" y="172" width="13" height="13" rx="3" fill="#161b22"/><rect x="312" y="189" width="13" height="13" rx="3" fill="#161b22"/><rect x="312" y="206" width="13" height="13" rx="3" fill="#161b22"/><rect x="329" y="104" width="13" height="13" rx="3" fill="#161b22"/><rect x="329" y="121" width="13" height="13" rx="3" fill="#161b22"/><rect x="329" y="138" width="13" height="13" rx="3" fill="#161b22"/><rect x="329" y="155" width="13" height="13" rx="3" fill="#161b22"/><rect x="329" y="172" width="13" height="13" rx="3" fill="#161b22"/><rect x="329" y="189" width="13" height="13" rx="3" fill="#161b22"/><rect x="329" y="206" width="13" height="13" rx="3" fill="#161b22"/><rect x="346" y="104" width="13" height="13" rx="3" fill="#161b22"/><rect x="346" y="121" width="13" height="13" rx="3" fill="#161b22"/><rect x="346" y="138" width="13" height="13" rx="3" fill="#161b22"/><rect x="346" y="155" width="13" height="13" rx="3" fill="#161b22"/><rect x="346" y="172" width="13" height="13" rx="3" fill="#161b22"/><rect x="346" y="189" width="13" height="13" rx="3" fill="#161b22"/><rect x="346" y="206" width="13" height="13" rx="3" fill="#161b22"/><rect x="363" y="104" width="13" height="13" rx="3" fill="#161b22"/><rect x="363" y="121" width="13" height="13" rx="3" fill="#161b22"/><rect x="363" y="138" width="13" height="13" rx="3" fill="#161b22"/><rect x="363" y="155" width="13" height="13" rx="3" fill="#161b22"/><rect x="363" y="172" width="13" height="13" rx="3" fill="#161b22"/><rect x="363" y="189" width="13" height="13" rx="3" fill="#161b22"/><rect x="363" y="206" width="13" height="13" rx="3" fill="#161b22"/><rect x="380" y="104" width="13" height="13" rx="3" fill="#161b22"/><rect x="380" y="121" width="13" height="13" rx="3" fill="#161b22"/><rect x="380" y="138" width="13" height="13" rx="3" fill="#161b22"/><rect x="380" y="155" width="13" height="13" rx="3" fill="#161b22"/><rect x="380" y="172" width="13" height="13" rx="3" fill="#161b22"/><rect x="380" y="189" width="13" height="13" rx="3" fill="#161b22"/><rect x="380" y="206" width="13" height="13" rx="3" fill="#161b22"/><rect x="397" y="104" width="13" height="13" rx="3" fill="#161b22"/><rect x="397" y="121" width="13" height="13" rx="3" fill="#161b22"/><rect x="397" y="138" width="13" height="13" rx="3" fill="#161b22"/><rect x="397" y="155" width="13" height="13" rx="3" fill="#161b22"/><rect x="397" y="172" width="13" height="13" rx="3" fill="#161b22"/><rect x="397" y="189" width="13" height="13" rx="3" fill="#161b22"/><rect x="397" y="206" width="13" height="13" rx="3" fill="#161b22"/><rect x="414" y="104" width="13" height="13" rx="3" fill="#161b22"/><rect x="414" y="121" width="13" height="13" rx="3" fill="#161b22"/><rect x="414" y="138" width="13" height="13" rx="3" fill="#161b22"/><rect x="414" y="155" width="13" height="13" rx="3" fill="#161b22"/><rect x="414" y="172" width="13" height="13" rx="3" fill="#161b22"/><rect x="414" y="189" width="13" height="13" rx="3" fill="#161b22"/><rect x="414" y="206" width="13" height="13" rx="3" fill="#161b22"/><rect x="431" y="104" width="13" height="13" rx="3" fill="#161b22"/><rect x="431" y="121" width="13" height="13" rx="3" fill="#161b22"/><rect x="431" y="138" width="13" height="13" rx="3" fill="#161b22"/><rect x="431" y="155" width="13" height="13" rx="3" fill="#161b22"/><rect x="431" y="172" width="13" height="13" rx="3" fill="#161b22"/><rect x="431" y="189" width="13" height="13" rx="3" fill="#161b22"/><rect x="431" y="206" width="13" height="13" rx="3" fill="#161b22"/><rect x="448" y="104" width="13" height="13" rx="3" fill="#161b22"/><rect x="448" y="121" width="13" height="13" rx="3" fill="#161b22"/><rect x="448" y="138" width="13" height="13" rx="3" fill="#161b22"/><rect x="448" y="155" width="13" height="13" rx="3" fill="#161b22"/><rect x="448" y="172" width="13" height="13" rx="3" fill="#161b22"/><rect x="448" y="189" width="13" height="13" rx="3" fill="#161b22"/><rect x="448" y="206" width="13" height="13" rx="3" fill="#161b22"/><rect x="465" y="104" width="13" height="13" rx="3" fill="#161b22"/><rect x="465" y="121" width="13" height="13" rx="3" fill="#161b22"/><rect x="465" y="138" width="13" height="13" rx="3" fill="#161b22"/><rect x="465" y="155" width="13" height="13" rx="3" fill="#161b22"/><rect x="465" y="172" width="13" height="13" rx="3" fill="#161b22"/><rect x="465" y="189" width="13" height="13" rx="3" fill="#161b22"/><rect x="465" y="206" width="13" height="13" rx="3" fill="#161b22"/><rect x="482" y="104" width="13" height="13" rx="3" fill="#161b22"/><rect x="482" y="121" width="13" height="13" rx="3" fill="#161b22"/><rect x="482" y="138" width="13" height="13" rx="3" fill="#161b22"/><rect x="482" y="155" width="13" height="13" rx="3" fill="#161b22"/><rect x="482" y="172" width="13" height="13" rx="3" fill="#161b22"/><rect x="482" y="189" width="13" height="13" rx="3" fill="#161b22"/><rect x="482" y="206" width="13" height="13" rx="3" fill="#161b22"/><rect x="499" y="104" width="13" height="13" rx="3" fill="#161b22"/><rect x="499" y="121" width="13" height="13" rx="3" fill="#161b22"/><rect x="499" y="138" width="13" height="13" rx="3" fill="#161b22"/><rect x="499" y="155" width="13" height="13" rx="3" fill="#161b22"/><rect x="499" y="172" width="13" height="13" rx="3" fill="#161b22"/><rect x="499" y="189" width="13" height="13" rx="3" fill="#161b22"/><rect x="499" y="206" width="13" height="13" rx="3" fill="#161b22"/><rect x="516" y="104" width="13" height="13" rx="3" fill="#161b22"/><rect x="516" y="121" width="13" height="13" rx="3" fill="#161b22"/><rect x="516" y="138" width="13" height="13" rx="3" fill="#161b22"/><rect x="516" y="155" width="13" height="13" rx="3" fill="#161b22"/><rect x="516" y="172" width="13" height="13" rx="3" fill="#161b22"/><rect x="516" y="189" width="13" height="13" rx="3" fill="#161b22"/><rect x="516" y="206" width="13" height="13" rx="3" fill="#161b22"/><rect x="533" y="104" width="13" height="13" rx="3" fill="#161b22"/><rect x="533" y="121" width="13" height="13" rx="3" fill="#161b22"/><rect x="533" y="138" width="13" height="13" rx="3" fill="#161b22"/><rect x="533" y="155" width="13" height="13" rx="3" fill="#161b22"/><rect x="533" y="172" width="13" height="13" rx="3" fill="#161b22"/><rect x="533" y="189" width="13" height="13" rx="3" fill="#161b22"/><rect x="533" y="206" width="13" height="13" rx="3" fill="#161b22"/><rect x="550" y="104" width="13" height="13" rx="3" fill="#161b22"/><rect x="550" y="121" width="13" height="13" rx="3" fill="#161b22"/><rect x="550" y="138" width="13" height="13" rx="3" fill="#161b22"/><rect x="550" y="155" width="13" height="13" rx="3" fill="#161b22"/><rect x="550" y="172" width="13" height="13" rx="3" fill="#161b22"/><rect x="550" y="189" width="13" height="13" rx="3" fill="#161b22"/><rect x="550" y="206" width="13" height="13" rx="3" fill="#161b22"/><rect x="567" y="104" width="13" height="13" rx="3" fill="#161b22"/><rect x="567" y="121" width="13" height="13" rx="3" fill="#161b22"/><rect x="567" y="138" width="13" height="13" rx="3" fill="#161b22"/><rect x="567" y="155" width="13" height="13" rx="3" fill="#161b22"/><rect x="567" y="172" width="13" height="13" rx="3" fill="#161b22"/><rect x="567" y="189" width="13" height="13" rx="3" fill="#161b22"/><rect x="567" y="206" width="13" height="13" rx="3" fill="#161b22"/><rect x="584" y="104" width="13" height="13" rx="3" fill="#161b22"/><rect x="584" y="121" width="13" height="13" rx="3" fill="#161b22"/><rect x="584" y="138" width="13" height="13" rx="3" fill="#161b22"/><rect x="584" y="155" width="13" height="13" rx="3" fill="#161b22"/><rect x="584" y="172" width="13" height="13" rx="3" fill="#161b22"/><rect x="584" y="189" width="13" height="13" rx="3" fill="#161b22"/><rect x="584" y="206" width="13" height="13" rx="3" fill="#161b22"/><rect x="601" y="104" width="13" height="13" rx="3" fill="#161b22"/><rect x="601" y="121" width="13" height="13" rx="3" fill="#161b22"/><rect x="601" y="138" width="13" height="13" rx="3" fill="#161b22"/><rect x="601" y="155" width="13" height="13" rx="3" fill="#161b22"/><rect x="601" y="172" width="13" height="13" rx="3" fill="#161b22"/><rect x="601" y="189" width="13" height="13" rx="3" fill="#161b22"/><rect x="601" y="206" width="13" height="13" rx="3" fill="#161b22"/><rect x="618" y="104" width="13" height="13" rx="3" fill="#161b22"/><rect x="618" y="121" width="13" height="13" rx="3" fill="#161b22"/><rect x="618" y="138" width="13" height="13" rx="3" fill="#161b22"/><rect x="618" y="155" width="13" height="13" rx="3" fill="#161b22"/><rect x="618" y="172" width="13" height="13" rx="3" fill="#161b22"/><rect x="618" y="189" width="13" height="13" rx="3" fill="#161b22"/><rect x="618" y="206" width="13" height="13" rx="3" fill="#161b22"/><rect x="635" y="104" width="13" height="13" rx="3" fill="#161b22"/><rect x="635" y="121" width="13" height="13" rx="3" fill="#161b22"/><rect x="635" y="138" width="13" height="13" rx="3" fill="#161b22"/><rect x="635" y="155" width="13" height="13" rx="3" fill="#161b22"/><rect x="635" y="172" width="13" height="13" rx="3" fill="#161b22"/><rect x="635" y="189" width="13" height="13" rx="3" fill="#161b22"/><rect x="635" y="206" width="13" height="13" rx="3" fill="#161b22"/><rect x="652" y="104" width="13" height="13" rx="3" fill="#161b22"/><rect x="652" y="121" width="13" height="13" rx="3" fill="#161b22"/><rect x="652" y="138" width="13" height="13" rx="3" fill="#161b22"/><rect x="652" y="155" width="13" height="13" rx="3" fill="#161b22"/><rect x="652" y="172" width="13" height="13" rx="3" fill="#161b22"/><rect x="652" y="189" width="13" height="13" rx="3" fill="#161b22"/><rect x="652" y="206" width="13" height="13" rx="3" fill="#161b22"/><rect x="669" y="104" width="13" height="13" rx="3" fill="#161b22"/><rect x="669" y="121" width="13" height="13" rx="3" fill="#161b22"/><rect x="669" y="138" width="13" height="13" rx="3" fill="#161b22"/><rect x="669" y="155" width="13" height="13" rx="3" fill="#161b22"/><rect x="669" y="172" width="13" height="13" rx="3" fill="#161b22"/><rect x="669" y="189" width="13" height="13" rx="3" fill="#161b22"/><rect x="669" y="206" width="13" height="13" rx="3" fill="#161b22"/><rect x="686" y="104" width="13" height="13" rx="3" fill="#161b22"/><rect x="686" y="121" width="13" height="13" rx="3" fill="#161b22"/><rect x="686" y="138" width="13" height="13" rx="3" fill="#161b22"/><rect x="686" y="155" width="13" height="13" rx="3" fill="#161b22"/><rect x="686" y="172" width="13" height="13" rx="3" fill="#161b22"/><rect x="686" y="189" width="13" height="13" rx="3" fill="#161b22"/><rect x="686" y="206" width="13" height="13" rx="3" fill="#161b22"/><rect x="703" y="104" width="13" height="13" rx="3" fill="#161b22"/><rect x="703" y="121" width="13" height="13" rx="3" fill="#161b22"/><rect x="703" y="138" width="13" height="13" rx="3" fill="#161b22"/><rect x="703" y="155" width="13" height="13" rx="3" fill="#161b22"/><rect x="703" y="172" width="13" height="13" rx="3" fill="#161b22"/><rect x="703" y="189" width="13" height="13" rx="3" fill="#161b22"/><rect x="703" y="206" width="13" height="13" rx="3" fill="#161b22"/><rect x="720" y="104" width="13" height="13" rx="3" fill="#161b22"/><rect x="720" y="121" width="13" height="13" rx="3" fill="#161b22"/><rect x="720" y="138" width="13" height="13" rx="3" fill="#161b22"/><rect x="720" y="155" width="13" height="13" rx="3" fill="#161b22"/><rect x="720" y="172" width="13" height="13" rx="3" fill="#161b22"/><rect x="720" y="189" width="13" height="13" rx="3" fill="#161b22"/><rect x="720" y="206" width="13" height="13" rx="3" fill="#161b22"/><rect x="737" y="104" width="13" height="13" rx="3" fill="#161b22"/><rect x="737" y="121" width="13" height="13" rx="3" fill="#161b22"/><rect x="737" y="138" width="13" height="13" rx="3" fill="#161b22"/><rect x="737" y="155" width="13" height="13" rx="3" fill="#161b22"/><rect x="737" y="172" width="13" height="13" rx="3" fill="#161b22"/><rect x="737" y="189" width="13" height="13" rx="3" fill="#161b22"/><rect x="737" y="206" width="13" height="13" rx="3" fill="#161b22"/><rect x="754" y="104" width="13" height="13" rx="3" fill="#161b22"/><rect x="754" y="121" width="13" height="13" rx="3" fill="#161b22"/><rect x="754" y="138" width="13" height="13" rx="3" fill="#161b22"/><rect x="754" y="155" width="13" height="13" rx="3" fill="#161b22"/><rect x="754" y="172" width="13" height="13" rx="3" fill="#161b22"/><rect x="754" y="189" width="13" height="13" rx="3" fill="#161b22"/><rect x="754" y="206" width="13" height="13" rx="3" fill="#161b22"/><rect x="771" y="104" width="13" height="13" rx="3" fill="#161b22"/><rect x="771" y="121" width="13" height="13" rx="3" fill="#161b22"/><rect x="771" y="138" width="13" height="13" rx="3" fill="#161b22"/><rect x="771" y="155" width="13" height="13" rx="3" fill="#161b22"/><rect x="771" y="172" width="13" height="13" rx="3" fill="#161b22"/><rect x="771" y="189" width="13" height="13" rx="3" fill="#161b22"/><rect x="771" y="206" width="13" height="13" rx="3" fill="#161b22"/><rect x="788" y="104" width="13" height="13" rx="3" fill="#161b22"/><rect x="788" y="121" width="13" height="13" rx="3" fill="#161b22"/><rect x="788" y="138" width="13" height="13" rx="3" fill="#173b25"/><rect x="788" y="155" width="13" height="13" rx="3" fill="#161b22"/><rect x="788" y="172" width="13" height="13" rx="3" fill="#161b22"/><rect x="788" y="189" width="13" height="13" rx="3" fill="#161b22"/><rect x="788" y="206" width="13" height="13" rx="3" fill="#161b22"/><rect x="805" y="104" width="13" height="13" rx="3" fill="#161b22"/><rect x="805" y="121" width="13" height="13" rx="3" fill="#161b22"/><rect x="805" y="138" width="13" height="13" rx="3" fill="#161b22"/><rect x="805" y="155" width="13" height="13" rx="3" fill="#161b22"/><rect x="805" y="172" width="13" height="13" rx="3" fill="#161b22"/><rect x="805" y="189" width="13" height="13" rx="3" fill="#161b22"/><rect x="805" y="206" width="13" height="13" rx="3" fill="#161b22"/><rect x="822" y="104" width="13" height="13" rx="3" fill="#161b22"/><rect x="822" y="121" width="13" height="13" rx="3" fill="#161b22"/><rect x="822" y="138" width="13" height="13" rx="3" fill="#161b22"/><rect x="822" y="155" width="13" height="13" rx="3" fill="#161b22"/><rect x="822" y="172" width="13" height="13" rx="3" fill="#173b25"/><rect x="822" y="189" width="13" height="13" rx="3" fill="#173b25"/><rect x="822" y="206" width="13" height="13" rx="3" fill="#161b22"/><rect x="839" y="104" width="13" height="13" rx="3" fill="#161b22"/><rect x="839" y="121" width="13" height="13" rx="3" fill="#161b22"/><rect x="839" y="138" width="13" height="13" rx="3" fill="#161b22"/><rect x="839" y="155" width="13" height="13" rx="3" fill="#161b22"/><rect x="839" y="172" width="13" height="13" rx="3" fill="#161b22"/><rect x="839" y="189" width="13" height="13" rx="3" fill="#161b22"/><rect x="839" y="206" width="13" height="13" rx="3" fill="#161b22"/><rect x="856" y="104" width="13" height="13" rx="3" fill="#161b22"/><rect x="856" y="121" width="13" height="13" rx="3" fill="#161b22"/><rect x="856" y="138" width="13" height="13" rx="3" fill="#173b25"/><rect x="856" y="155" width="13" height="13" rx="3" fill="#173b25"/><rect x="856" y="172" width="13" height="13" rx="3" fill="#161b22"/><rect x="856" y="189" width="13" height="13" rx="3" fill="#161b22"/><rect x="856" y="206" width="13" height="13" rx="3" fill="#161b22"/><rect x="873" y="104" width="13" height="13" rx="3" fill="#161b22"/><rect x="873" y="121" width="13" height="13" rx="3" fill="#161b22"/><rect x="873" y="138" width="13" height="13" rx="3" fill="#161b22"/><rect x="873" y="155" width="13" height="13" rx="3" fill="#161b22"/><rect x="873" y="172" width="13" height="13" rx="3" fill="#161b22"/><rect x="873" y="189" width="13" height="13" rx="3" fill="#161b22"/><rect x="873" y="206" width="13" height="13" rx="3" fill="#161b22"/><rect x="890" y="104" width="13" height="13" rx="3" fill="#173b25"/><rect x="890" y="121" width="13" height="13" rx="3" fill="#173b25"/><rect x="890" y="138" width="13" height="13" rx="3" fill="#173b25"/><rect x="890" y="155" width="13" height="13" rx="3" fill="#173b25"/><rect x="890" y="172" width="13" height="13" rx="3" fill="#173b25"/><rect x="890" y="189" width="13" height="13" rx="3" fill="#173b25"/><rect x="890" y="206" width="13" height="13" rx="3" fill="#173b25"/><rect x="907" y="104" width="13" height="13" rx="3" fill="#173b25"/><rect x="907" y="121" width="13" height="13" rx="3" fill="#173b25"/><rect x="907" y="138" width="13" height="13" rx="3" fill="#173b25"/><rect x="907" y="155" width="13" height="13" rx="3" fill="#246b3d"/><rect x="907" y="172" width="13" height="13" rx="3" fill="#246b3d"/><rect x="907" y="189" width="13" height="13" rx="3" fill="#173b25"/><rect x="907" y="206" width="13" height="13" rx="3" fill="#246b3d"/><rect x="924" y="104" width="13" height="13" rx="3" fill="#7ee787"/><rect x="924" y="121" width="13" height="13" rx="3" fill="#246b3d"/><rect x="924" y="138" width="13" height="13" rx="3" fill="#161b22"/><rect x="924" y="155" width="13" height="13" rx="3" fill="#161b22"/><rect x="924" y="172" width="13" height="13" rx="3" fill="#161b22"/><rect x="924" y="189" width="13" height="13" rx="3" fill="#161b22"/><rect x="924" y="206" width="13" height="13" rx="3" fill="#161b22"/><rect x="941" y="104" width="13" height="13" rx="3" fill="#161b22"/><rect x="941" y="121" width="13" height="13" rx="3" fill="#161b22"/><rect x="941" y="138" width="13" height="13" rx="3" fill="#161b22"/><rect x="941" y="155" width="13" height="13" rx="3" fill="#161b22"/><rect x="941" y="172" width="13" height="13" rx="3" fill="#161b22"/><rect x="941" y="189" width="13" height="13" rx="3" fill="#161b22"/><rect x="941" y="206" width="13" height="13" rx="3" fill="#161b22"/><rect x="958" y="104" width="13" height="13" rx="3" fill="#161b22"/><rect x="958" y="121" width="13" height="13" rx="3" fill="#161b22"/><rect x="958" y="138" width="13" height="13" rx="3" fill="#161b22"/><rect x="958" y="155" width="13" height="13" rx="3" fill="#173b25"/><rect x="958" y="172" width="13" height="13" rx="3" fill="#161b22"/><rect x="958" y="189" width="13" height="13" rx="3" fill="#161b22"/>
  <path d="M 42 144 C 50 132, 58 132, 66 144" class="lead-thread"/><g class="spool" transform="translate(28 126)"><circle cx="14" cy="18" r="13" class="spool-wood"/><circle cx="14" cy="18" r="5" class="spool-core"/><rect x="12" y="3" width="4" height="30" rx="2" class="spool-pin"/><path d="M 9 8 C 15 10, 19 14, 19 18 C 19 22, 15 26, 9 28" class="spool-wrap"/></g><g transform="translate(66 144)"><path d="M 0 0 C 8 -8, 16 -8, 24 0 C 16 8, 8 8, 0 0 Z" class="bow-loop"/><path d="M 8 0 C 14 5, 14 13, 10 19" class="bow-tail"/><path d="M 16 0 C 22 5, 22 13, 18 19" class="bow-tail"/><circle cx="12" cy="0" r="3.2" class="bow-knot"/></g><polyline points="267,144 794,144 828,178 828,195 862,144 862,161 896,110 896,127 896,144 896,161 896,178 896,195 896,212 913,110 913,127 913,144 913,161 913,178 913,195 913,212 930,110 930,127 964,161" fill="none" class="trail"/><path d="M 909 174 L 917 182 M 917 174 L 909 182" class="stitch"/><path d="M 909 191 L 917 199 M 917 191 L 909 199" class="stitch"/><path d="M 909 208 L 917 216 M 917 208 L 909 216" class="stitch"/><path d="M 926 106 L 934 114 M 934 106 L 926 114" class="stitch"/><path d="M 926 123 L 934 131 M 934 123 L 926 131" class="stitch"/><g class="latest-loop" transform="translate(964 161)"><path d="M -12 -2 C -12 -10, -4 -14, 4 -12 C 12 -10, 14 -2, 11 5 C 8 12, -2 14, -9 10 C -13 7, -14 1, -12 -2 Z" class="latest-loop-ring"/><path d="M 6 -10 C 9 -13, 13 -13, 15 -9" class="latest-loop-spark"/><circle cx="15" cy="-8" r="1.8" class="latest-loop-dot"/></g><g class="needle" transform="translate(964 161) rotate(-18)"><line x1="-22" y1="0" x2="-4" y2="0" class="thread"/><line x1="-4" y1="0" x2="10" y2="0" class="shaft"/><ellipse cx="14" cy="0" rx="6" ry="3.5" class="eye"/><circle cx="14" cy="0" r="1.2" class="eye-hole"/></g><g transform="translate(976 133) rotate(-4)"><path d="M 0 0 V 30" class="pin-stem"/><path d="M 0 0 H 34 V 10 H 26 L 21 5 L 26 0 H 0 Z" class="pin-flag"/><path d="M 6 5 H 24" class="pin-flag-stitch"/><text x="7" y="7.2" class="pin-text">now</text></g>
</svg>
